<svg width="337" height="353" viewBox="0 0 337 353" fill="none" xmlns="http://www.w3.org/2000/svg">
<path d="M159.211 353H4.57267C3.35992 353 2.19685 352.456 1.3393 351.486C0.481762 350.517 0 349.203 0 347.832V5.12237C0.010559 3.75969 0.496978 2.45688 1.35338 1.49753C2.20978 0.538177 3.36683 -5.22427e-05 4.57267 3.80336e-09H159.211C159.811 3.80336e-09 160.406 0.133663 160.96 0.39336C161.515 0.653058 162.019 1.0337 162.444 1.51356C162.869 1.99342 163.205 2.56309 163.435 3.19006C163.665 3.81702 163.783 4.489 163.783 5.16762V347.832C163.783 348.511 163.665 349.183 163.435 349.81C163.205 350.437 162.869 351.007 162.444 351.486C162.019 351.966 161.515 352.347 160.96 352.607C160.406 352.866 159.811 353 159.211 353ZM4.57267 0.181003C3.41367 0.183395 2.30274 0.704769 1.48321 1.63094C0.663669 2.55711 0.202321 3.81257 0.200204 5.12237V347.832C0.202321 349.142 0.663669 350.398 1.48321 351.324C2.30274 352.25 3.41367 352.771 4.57267 352.774H159.211C160.37 352.771 161.48 352.25 162.3 351.324C163.12 350.398 163.581 349.142 163.583 347.832V5.12237C163.581 3.81257 163.12 2.55711 162.3 1.63094C161.48 0.704769 160.37 0.183395 159.211 0.181003H4.57267Z" fill="#E7E9F8"/>
<path d="M332.427 353H177.789C176.577 353 175.414 352.456 174.556 351.486C173.699 350.517 173.217 349.203 173.217 347.832V5.12237C173.227 3.75969 173.714 2.45688 174.57 1.49753C175.427 0.538177 176.584 -5.22427e-05 177.789 3.80336e-09H332.427C333.64 3.80337e-09 334.803 0.544444 335.661 1.51356C336.518 2.48268 337 3.79708 337 5.16762V347.832C337 348.511 336.882 349.183 336.652 349.81C336.422 350.437 336.085 351.007 335.661 351.486C335.236 351.966 334.732 352.347 334.177 352.607C333.622 352.866 333.028 353 332.427 353ZM177.789 0.181003C176.63 0.183395 175.52 0.704769 174.7 1.63094C173.88 2.55711 173.419 3.81257 173.417 5.12237V347.832C173.419 349.142 173.88 350.398 174.7 351.324C175.52 352.25 176.63 352.771 177.789 352.774H332.427C333.586 352.771 334.697 352.25 335.517 351.324C336.336 350.398 336.798 349.142 336.8 347.832V5.12237C336.798 3.81257 336.336 2.55711 335.517 1.63094C334.697 0.704769 333.586 0.183395 332.427 0.181003H177.789Z" fill="#E7E9F8"/>
<path d="M58.8279 102.493L60.1252 105.452L63.0242 105.932L60.9261 108.24L61.4226 111.498L58.8279 109.959L56.2413 111.498L56.7378 108.24L54.6396 105.932L57.5386 105.452L58.8279 102.493Z" fill="#E7E9F8"/>
<path d="M318.013 242.073L319.31 245.041L322.209 245.521L320.111 247.82L320.607 251.087L318.013 249.548L315.426 251.087L315.922 247.82L313.824 245.521L316.723 245.041L318.013 242.073Z" fill="#A1A4B6"/>
<path d="M266.68 328.13L267.978 331.09L270.869 331.569L268.771 333.877L269.267 337.135L266.68 335.597L264.094 337.135L264.582 333.877L262.492 331.569L265.383 331.09L266.68 328.13Z" fill="#A1A4B6"/>
<path d="M149.232 49.9115L149.713 51.0156L150.794 51.1966C150.854 51.2055 150.911 51.2337 150.958 51.2778C151.004 51.3219 151.039 51.3801 151.058 51.4456C151.076 51.5111 151.078 51.5812 151.062 51.6477C151.047 51.7142 151.015 51.7743 150.97 51.8211L150.169 52.6808L150.353 53.8936C150.363 53.9611 150.356 54.0302 150.333 54.0933C150.31 54.1565 150.271 54.2112 150.223 54.2515C150.174 54.2917 150.116 54.3159 150.056 54.3214C149.995 54.327 149.935 54.3136 149.881 54.2827L148.92 53.7035L147.959 54.2827C147.905 54.3136 147.845 54.327 147.784 54.3214C147.724 54.3159 147.666 54.2917 147.617 54.2515C147.569 54.2112 147.531 54.1565 147.507 54.0933C147.484 54.0302 147.477 53.9611 147.487 53.8936L147.663 52.6808L146.862 51.8211C146.817 51.7738 146.785 51.7129 146.77 51.6457C146.755 51.5785 146.757 51.5078 146.777 51.442C146.796 51.3763 146.832 51.3182 146.88 51.2747C146.927 51.2312 146.985 51.2041 147.046 51.1966L148.119 51.0156L148.6 49.9115C148.619 49.8334 148.66 49.7645 148.717 49.7155C148.775 49.6664 148.844 49.6399 148.916 49.6399C148.988 49.6399 149.058 49.6664 149.115 49.7155C149.172 49.7645 149.213 49.8334 149.232 49.9115Z" fill="#E7E9F8"/>
<path d="M16.9692 314.039L17.4497 315.134L18.5228 315.315C18.5837 315.325 18.641 315.353 18.6883 315.398C18.7355 315.442 18.7707 315.501 18.7899 315.567C18.8091 315.633 18.8115 315.704 18.7968 315.771C18.7822 315.839 18.751 315.9 18.7069 315.949L17.9061 316.8L18.0903 318.012C18.0998 318.08 18.0926 318.149 18.0695 318.212C18.0464 318.275 18.0083 318.33 17.9594 318.37C17.9105 318.41 17.8528 318.435 17.7925 318.44C17.7322 318.446 17.6718 318.432 17.6178 318.401L16.6569 317.831L15.6959 318.401C15.6419 318.432 15.5815 318.446 15.5212 318.44C15.4609 318.435 15.4032 318.41 15.3543 318.37C15.3054 318.33 15.2673 318.275 15.2442 318.212C15.2212 318.149 15.2139 318.08 15.2234 318.012L15.4076 316.8L14.6068 315.949C14.5628 315.901 14.5316 315.84 14.5165 315.773C14.5014 315.707 14.5032 315.636 14.5215 315.571C14.5398 315.505 14.5739 315.446 14.6201 315.401C14.6663 315.356 14.7227 315.326 14.7829 315.315L15.856 315.134L16.3445 314.039C16.3659 313.965 16.4077 313.9 16.4638 313.854C16.5199 313.808 16.5875 313.783 16.6569 313.783C16.7262 313.783 16.7938 313.808 16.8499 313.854C16.906 313.9 16.9478 313.965 16.9692 314.039Z" fill="#A1A4B6"/>
<path d="M38.5674 38.2818L39.0479 39.3859L40.129 39.5579C40.1893 39.5688 40.2457 39.5984 40.2919 39.6435C40.3381 39.6886 40.3722 39.7473 40.3905 39.8131C40.4088 39.8789 40.4105 39.9491 40.3954 40.0159C40.3804 40.0828 40.3491 40.1435 40.3052 40.1914L39.5044 41.0964L39.6886 42.3001C39.7014 42.3684 39.6964 42.4395 39.6743 42.5047C39.6521 42.5699 39.6138 42.6265 39.5639 42.6676C39.5139 42.7087 39.4545 42.7327 39.3928 42.7365C39.3311 42.7403 39.2697 42.7239 39.2161 42.6892L38.2551 42.1191L37.2941 42.6892C37.2405 42.7239 37.1791 42.7403 37.1174 42.7365C37.0557 42.7327 36.9963 42.7087 36.9464 42.6676C36.8964 42.6265 36.8581 42.5699 36.8359 42.5047C36.8138 42.4395 36.8088 42.3684 36.8216 42.3001L36.9978 41.0964L36.197 40.1914C36.1529 40.1429 36.1218 40.0815 36.1071 40.014C36.0925 39.9465 36.0949 39.8757 36.1141 39.8097C36.1333 39.7436 36.1685 39.685 36.2157 39.6405C36.2629 39.596 36.3203 39.5674 36.3812 39.5579L37.4543 39.3859L37.9668 38.2818C37.9925 38.2161 38.0346 38.1602 38.0879 38.1209C38.1412 38.0817 38.2035 38.0608 38.2671 38.0608C38.3307 38.0608 38.393 38.0817 38.4463 38.1209C38.4996 38.1602 38.5417 38.2161 38.5674 38.2818Z" fill="#E7E9F8"/>
<path d="M37.2698 256.408C37.2714 256.646 37.2103 256.88 37.0942 257.079C36.9781 257.278 36.8123 257.434 36.6179 257.526C36.4234 257.619 36.209 257.644 36.0019 257.599C35.7947 257.553 35.6042 257.439 35.4545 257.271C35.3047 257.103 35.2025 256.889 35.1607 256.655C35.119 256.421 35.1396 256.179 35.2199 255.959C35.3003 255.738 35.4368 255.55 35.6122 255.417C35.7875 255.284 35.9937 255.213 36.2047 255.213C36.4858 255.213 36.7555 255.339 36.955 255.563C37.1545 255.787 37.2677 256.09 37.2698 256.408Z" fill="#E7E9F8"/>
<path d="M189.057 105.787C189.058 106.025 188.997 106.259 188.881 106.458C188.765 106.657 188.599 106.813 188.405 106.905C188.21 106.998 187.996 107.023 187.789 106.978C187.582 106.932 187.391 106.818 187.242 106.65C187.092 106.482 186.99 106.268 186.948 106.034C186.906 105.8 186.927 105.558 187.007 105.337C187.087 105.117 187.224 104.928 187.399 104.796C187.575 104.663 187.781 104.592 187.992 104.592C188.131 104.591 188.27 104.621 188.399 104.681C188.528 104.74 188.645 104.828 188.744 104.939C188.843 105.05 188.922 105.182 188.976 105.328C189.029 105.473 189.057 105.629 189.057 105.787Z" fill="#E7E9F8"/>
<path d="M133.832 39.2776C133.832 39.5157 133.77 39.7484 133.653 39.9464C133.536 40.1443 133.369 40.2986 133.175 40.3897C132.98 40.4808 132.766 40.5046 132.559 40.4582C132.353 40.4117 132.163 40.2971 132.014 40.1288C131.865 39.9604 131.764 39.746 131.723 39.5125C131.682 39.279 131.703 39.037 131.783 38.817C131.864 38.5971 132 38.4091 132.176 38.2768C132.351 38.1446 132.557 38.074 132.767 38.074C133.049 38.0763 133.319 38.2039 133.518 38.4291C133.717 38.6544 133.83 38.9591 133.832 39.2776Z" fill="#A1A4B6"/>
<path d="M135.519 332.632C138.683 331.788 140.642 328.205 139.896 324.63C139.149 321.054 135.979 318.84 132.815 319.684C129.651 320.528 127.692 324.11 128.439 327.686C129.185 331.261 132.355 333.476 135.519 332.632Z" fill="#C7C8D3"/>
<path d="M132.143 322.266C130.937 322.263 129.762 322.694 128.788 323.497C128.29 324.787 128.168 326.222 128.439 327.596C128.71 328.97 129.36 330.211 130.295 331.14C131.23 332.07 132.403 332.639 133.643 332.767C134.884 332.894 136.128 332.573 137.196 331.85C137.669 330.861 137.907 329.751 137.886 328.627C137.865 327.504 137.586 326.405 137.077 325.44C136.567 324.475 135.845 323.676 134.98 323.121C134.115 322.566 133.137 322.275 132.143 322.275V322.266Z" fill="#717591"/>
<path d="M86.5603 210.542H37.8306V185.681L86.5603 120.212H109.88V187.093H121.964V210.542H109.88V230.886H86.5603V210.542ZM86.5603 187.093V152.847L60.806 187.093H86.5603Z" fill="#0F27BD"/>
<path d="M130.301 176.034C130.301 155.346 133.595 140.865 140.183 132.593C146.771 124.322 156.811 120.189 170.302 120.195C176.778 120.195 182.098 121.1 186.262 122.91C190.045 124.45 193.509 126.85 196.44 129.96C198.911 132.626 201.005 135.706 202.647 139.091C204.272 142.626 205.496 146.378 206.29 150.259C208.101 158.55 209.005 167.06 208.981 175.6C208.981 195.341 206.026 209.788 200.116 218.941C194.206 228.093 184.028 232.673 169.581 232.679C161.477 232.679 154.929 231.219 149.937 228.299C144.905 225.331 140.667 220.897 137.66 215.456C135.338 211.45 133.531 205.969 132.239 199.012C130.897 191.448 130.248 183.748 130.301 176.034ZM156.84 176.106C156.84 189.983 157.921 199.447 160.083 204.497C162.245 209.547 165.387 212.084 169.509 212.108C170.817 212.124 172.115 211.847 173.327 211.293C174.54 210.738 175.643 209.917 176.572 208.877C178.569 206.723 180.037 203.32 180.977 198.668C181.916 194.017 182.386 186.777 182.386 176.948C182.386 162.504 181.302 152.793 179.135 147.816C176.967 142.838 173.716 140.352 169.381 140.359C164.96 140.359 161.757 142.896 159.771 147.97C157.785 153.044 156.808 162.423 156.84 176.106Z" fill="#0F27BD"/>
<path d="M265.991 210.542H217.262V185.681L265.991 120.213H289.311V187.093H301.436V210.542H289.311V230.887H265.991V210.542ZM265.991 187.093V152.847L240.245 187.093H265.991Z" fill="#0F27BD"/>
<g opacity="0.3">
<path d="M129.26 82.0122C129.26 82.3473 129.172 82.6749 129.007 82.9534C128.842 83.2319 128.608 83.4488 128.334 83.5766C128.06 83.7044 127.758 83.7374 127.468 83.6714C127.177 83.6054 126.91 83.4433 126.701 83.2057C126.492 82.9681 126.35 82.6657 126.293 82.3368C126.236 82.0079 126.267 81.6674 126.381 81.3583C126.496 81.0492 126.689 80.7855 126.937 80.6006C127.184 80.4158 127.474 80.3181 127.771 80.3198C127.967 80.3198 128.161 80.3637 128.343 80.4488C128.524 80.534 128.688 80.6588 128.827 80.8161C128.965 80.9733 129.075 81.16 129.149 81.3653C129.224 81.5705 129.261 81.7904 129.26 82.0122Z" fill="#0F27BD"/>
<path d="M26.7314 147.019C27.3152 147.019 27.7885 146.484 27.7885 145.825C27.7885 145.165 27.3152 144.63 26.7314 144.63C26.1476 144.63 25.6743 145.165 25.6743 145.825C25.6743 146.484 26.1476 147.019 26.7314 147.019Z" fill="#0F27BD"/>
<path d="M201.374 321.479C202.21 321.479 202.887 320.713 202.887 319.768C202.887 318.823 202.21 318.058 201.374 318.058C200.538 318.058 199.86 318.823 199.86 319.768C199.86 320.713 200.538 321.479 201.374 321.479Z" fill="#0F27BD"/>
<path d="M237.771 251.883C238.355 251.883 238.828 251.348 238.828 250.688C238.828 250.029 238.355 249.494 237.771 249.494C237.187 249.494 236.714 250.029 236.714 250.688C236.714 251.348 237.187 251.883 237.771 251.883Z" fill="#0F27BD"/>
<path d="M307.978 36.7615C307.978 36.9978 307.916 37.2288 307.8 37.4252C307.684 37.6217 307.519 37.7748 307.326 37.8652C307.133 37.9556 306.92 37.9793 306.715 37.9332C306.51 37.8871 306.322 37.7733 306.174 37.6062C306.026 37.4392 305.925 37.2263 305.885 36.9946C305.844 36.7628 305.865 36.5226 305.945 36.3044C306.025 36.0861 306.16 35.8995 306.334 35.7682C306.508 35.637 306.712 35.5669 306.921 35.5669C307.202 35.5669 307.471 35.6928 307.669 35.9168C307.867 36.1408 307.978 36.4447 307.978 36.7615Z" fill="#0F27BD"/>
<path d="M106.637 12.6702C106.637 12.9065 106.575 13.1374 106.459 13.3339C106.343 13.5303 106.178 13.6835 105.985 13.7739C105.791 13.8643 105.579 13.888 105.374 13.8419C105.169 13.7958 104.98 13.682 104.833 13.5149C104.685 13.3479 104.584 13.135 104.543 12.9033C104.502 12.6715 104.523 12.4313 104.603 12.213C104.683 11.9948 104.819 11.8082 104.993 11.6769C105.167 11.5456 105.371 11.4756 105.58 11.4756C105.86 11.478 106.127 11.6046 106.325 11.8281C106.523 12.0516 106.635 12.3541 106.637 12.6702Z" fill="#0F27BD"/>
<path d="M190.683 75.3514C191.267 75.3514 191.74 74.8165 191.74 74.1568C191.74 73.497 191.267 72.9622 190.683 72.9622C190.099 72.9622 189.626 73.497 189.626 74.1568C189.626 74.8165 190.099 75.3514 190.683 75.3514Z" fill="#0F27BD"/>
</g>
<path d="M81.3955 75.3603C91.0859 75.3603 98.9414 66.4826 98.9414 55.5315C98.9414 44.5803 91.0859 35.7026 81.3955 35.7026C71.7052 35.7026 63.8496 44.5803 63.8496 55.5315C63.8496 66.4826 71.7052 75.3603 81.3955 75.3603Z" fill="#0F27BD"/>
<path opacity="0.7" d="M81.3955 75.3603C91.0859 75.3603 98.9414 66.4826 98.9414 55.5315C98.9414 44.5803 91.0859 35.7026 81.3955 35.7026C71.7052 35.7026 63.8496 44.5803 63.8496 55.5315C63.8496 66.4826 71.7052 75.3603 81.3955 75.3603Z" fill="white"/>
<path opacity="0.2" d="M75.3492 40.5716C72.9597 40.5633 70.594 41.1085 68.3982 42.1735C65.6994 45.5256 64.0976 49.8209 63.8592 54.3448C63.6208 58.8687 64.7602 63.3484 67.0879 67.0388C69.4156 70.7291 72.7911 73.4076 76.653 74.6285C80.5149 75.8494 84.6303 75.5391 88.3145 73.7494C90.5987 70.9046 92.1029 67.3715 92.6444 63.5792C93.186 59.7868 92.7416 55.8984 91.3653 52.386C89.9889 48.8736 87.7398 45.8883 84.891 43.7927C82.0422 41.697 78.7164 40.5812 75.3172 40.5807L75.3492 40.5716Z" fill="#0F27BD"/>
<path opacity="0.2" d="M73.6032 45.8117C73.6032 46.1697 73.5092 46.5197 73.3332 46.8173C73.1573 47.115 72.9071 47.347 72.6145 47.484C72.3218 47.621 71.9998 47.6568 71.6891 47.587C71.3784 47.5171 71.093 47.3447 70.869 47.0916C70.645 46.8385 70.4925 46.516 70.4307 46.1648C70.3689 45.8137 70.4006 45.4498 70.5218 45.1191C70.643 44.7883 70.8483 44.5056 71.1117 44.3068C71.3751 44.1079 71.6848 44.0017 72.0015 44.0017C72.4263 44.0017 72.8337 44.1924 73.1341 44.5319C73.4344 44.8713 73.6032 45.3317 73.6032 45.8117Z" fill="#0F27BD"/>
<path opacity="0.2" d="M92.4704 44.0017C92.4704 44.3597 92.3764 44.7096 92.2004 45.0073C92.0245 45.3049 91.7743 45.5369 91.4816 45.6739C91.189 45.8109 90.8669 45.8468 90.5563 45.7769C90.2456 45.7071 89.9602 45.5347 89.7362 45.2816C89.5122 45.0284 89.3597 44.7059 89.2979 44.3548C89.2361 44.0037 89.2678 43.6397 89.389 43.309C89.5102 42.9783 89.7155 42.6956 89.9789 42.4967C90.2423 42.2978 90.5519 42.1917 90.8687 42.1917C91.2935 42.1917 91.7009 42.3823 92.0013 42.7218C92.3016 43.0612 92.4704 43.5216 92.4704 44.0017Z" fill="#0F27BD"/>
<path opacity="0.2" d="M89.2675 56.9252C89.2675 57.5123 89.1135 58.0862 88.8248 58.5744C88.5362 59.0626 88.126 59.443 87.646 59.6677C87.1661 59.8924 86.6379 59.9512 86.1284 59.8366C85.6189 59.7221 85.1509 59.4394 84.7835 59.0242C84.4162 58.6091 84.166 58.0802 84.0646 57.5043C83.9633 56.9285 84.0153 56.3317 84.2141 55.7893C84.4129 55.2468 84.7496 54.7832 85.1815 54.4571C85.6135 54.1309 86.1213 53.9568 86.6408 53.9568C87.3375 53.9568 88.0056 54.2695 88.4982 54.8262C88.9908 55.3829 89.2675 56.1379 89.2675 56.9252Z" fill="#0F27BD"/>
<path opacity="0.2" d="M80.9229 65.387C80.9229 66.171 80.7172 66.9374 80.3317 67.5893C79.9463 68.2412 79.3985 68.7492 78.7576 69.0493C78.1167 69.3493 77.4114 69.4278 76.731 69.2748C76.0506 69.1219 75.4256 68.7443 74.9351 68.19C74.4445 67.6356 74.1105 66.9293 73.9751 66.1604C73.8398 65.3914 73.9092 64.5944 74.1747 63.8701C74.4402 63.1458 74.8898 62.5267 75.4666 62.0911C76.0434 61.6556 76.7216 61.4231 77.4153 61.4231C78.3456 61.4231 79.2377 61.8407 79.8955 62.5841C80.5533 63.3275 80.9229 64.3357 80.9229 65.387Z" fill="#0F27BD"/>
<path d="M289.343 294.714C291.297 285.359 286.171 275.986 277.893 273.778C269.615 271.57 261.321 277.364 259.368 286.718C257.414 296.073 262.54 305.446 270.818 307.654C279.096 309.862 287.39 304.068 289.343 294.714Z" fill="#0F27BD"/>
<path opacity="0.3" d="M289.343 294.714C291.297 285.359 286.171 275.986 277.893 273.778C269.615 271.57 261.321 277.364 259.368 286.718C257.414 296.073 262.54 305.446 270.818 307.654C279.096 309.862 287.39 304.068 289.343 294.714Z" fill="white"/>
<path opacity="0.4" d="M284.082 277.241C280.669 276.077 277.003 276.288 273.712 277.839C270.42 279.39 267.708 282.184 266.037 285.744C264.366 289.305 263.841 293.41 264.552 297.359C265.262 301.308 267.164 304.856 269.932 307.396C271.368 307.889 272.86 308.139 274.36 308.139C277.54 308.138 280.641 307.025 283.238 304.953C285.835 302.881 287.801 299.951 288.867 296.566C289.932 293.181 290.044 289.506 289.187 286.046C288.331 282.586 286.547 279.51 284.082 277.241Z" fill="#0F27BD"/>
<path d="M259.657 295.939C243.217 304.681 255.477 311.424 278.645 302.012C300.099 293.296 308.275 282.309 289.055 285.721C290.089 290.292 263.221 302.12 259.657 295.939Z" fill="#0F27BD"/>
<path opacity="0.2" d="M283.898 120.213C262.364 136.657 234.487 158.377 226.792 210.542H225.15C232.638 158.956 259.497 136.72 281.039 120.213H283.898Z" fill="#131418"/>
<path d="M172.504 283.513C158.89 283.513 145.429 276.572 138.87 265.241C134.826 258.236 130.125 243.566 144.123 223.991L145.364 225.131C135.466 238.978 133.64 252.869 140.215 264.255C148.223 278.101 167.115 285.07 183.243 280.11C199.764 275.033 209.79 258.797 210.759 235.566C214.067 156.097 251.425 131.616 278.701 113.742C295.654 102.637 307.898 94.619 305.208 77.6863C304.831 75.3423 304.006 73.7223 302.669 72.7268C299.185 70.1294 292.379 71.9304 284.498 74.0029C269.035 78.0754 247.861 83.6503 235.248 59.405L236.634 58.5C248.646 81.605 268.322 76.4192 284.138 72.2562C292.379 70.0932 299.49 68.2198 303.55 71.2335C305.272 72.5096 306.329 74.5278 306.753 77.3876C309.644 95.5602 296.343 104.285 279.485 115.326C252.522 132.992 215.604 157.183 212.337 235.692C211.328 259.766 200.869 276.608 183.636 281.902C180.005 282.995 176.261 283.537 172.504 283.513Z" fill="#0F27BD"/>
<path opacity="0.2" d="M172.504 283.513C158.89 283.513 145.429 276.572 138.87 265.241C134.826 258.236 130.125 243.566 144.123 223.991L145.364 225.131C135.466 238.978 133.64 252.869 140.215 264.255C148.223 278.101 167.115 285.07 183.243 280.11C199.764 275.033 209.79 258.797 210.759 235.566C214.067 156.097 251.425 131.616 278.701 113.742C295.654 102.637 307.898 94.619 305.208 77.6863C304.831 75.3423 304.006 73.7223 302.669 72.7268C299.185 70.1294 292.379 71.9304 284.498 74.0029C269.035 78.0754 247.861 83.6503 235.248 59.405L236.634 58.5C248.646 81.605 268.322 76.4192 284.138 72.2562C292.379 70.0932 299.49 68.2198 303.55 71.2335C305.272 72.5096 306.329 74.5278 306.753 77.3876C309.644 95.5602 296.343 104.285 279.485 115.326C252.522 132.992 215.604 157.183 212.337 235.692C211.328 259.766 200.869 276.608 183.636 281.902C180.005 282.995 176.261 283.537 172.504 283.513Z" fill="white"/>
<path d="M218.759 38.0107C222.449 38.0348 226.115 38.6846 229.634 39.9384C229.634 39.9384 238.443 56.9255 239.484 60.817C239.116 64.6543 233.39 70.9441 233.39 70.9441L218.759 38.0107Z" fill="#0F27BD"/>
<path opacity="0.3" d="M218.759 38.0107C222.449 38.0348 226.115 38.6846 229.634 39.9384C229.634 39.9384 238.443 56.9255 239.484 60.817C239.116 64.6543 233.39 70.9441 233.39 70.9441L218.759 38.0107Z" fill="white"/>
<path d="M244.85 120.484C241.458 115.797 238.364 110.843 235.593 105.66C234.92 104.351 234.282 103.018 233.679 101.66C233.334 100.891 233.006 100.122 232.686 99.3434C232.265 98.586 231.939 97.7668 231.717 96.9089C230.756 85.4424 234.231 76.9987 230.916 67.7947L217.718 73.623C217.718 73.623 218.839 90.0218 221.402 99.8683C223.004 105.959 226.591 111.226 230.059 116.104C231.14 117.625 232.181 119.19 233.262 120.72C234.343 122.249 235.432 123.489 236.465 124.928C238.027 127.109 238.54 129.2 237.362 131.77L237.162 132.177C236.826 132.847 238.395 133.607 239.388 132.177C240.99 129.842 240.766 129.987 242.159 127.996C243.008 126.792 243.977 125.48 244.818 124.376C245.224 123.833 245.449 123.147 245.455 122.437C245.46 121.726 245.247 121.036 244.85 120.484Z" fill="#0F27BD"/>
<path opacity="0.7" d="M244.85 120.484C241.458 115.797 238.364 110.843 235.593 105.66C234.92 104.351 234.282 103.018 233.679 101.66C233.334 100.891 233.006 100.122 232.686 99.3434C232.265 98.586 231.939 97.7668 231.717 96.9089C230.756 85.4424 234.231 76.9987 230.916 67.7947L217.718 73.623C217.718 73.623 218.839 90.0218 221.402 99.8683C223.004 105.959 226.591 111.226 230.059 116.104C231.14 117.625 232.181 119.19 233.262 120.72C234.343 122.249 235.432 123.489 236.465 124.928C238.027 127.109 238.54 129.2 237.362 131.77L237.162 132.177C236.826 132.847 238.395 133.607 239.388 132.177C240.99 129.842 240.766 129.987 242.159 127.996C243.008 126.792 243.977 125.48 244.818 124.376C245.224 123.833 245.449 123.147 245.455 122.437C245.46 121.726 245.247 121.036 244.85 120.484Z" fill="white"/>
<path opacity="0.3" d="M241.623 115.769C239.528 118.306 237.204 120.587 234.688 122.575C235.032 123.009 235.368 123.48 235.713 123.896C238.232 121.973 240.52 119.688 242.519 117.1L241.623 115.769Z" fill="#0F27BD"/>
<path opacity="0.3" d="M244.85 120.484L244.754 120.358C244.138 121.157 243.779 122.168 243.737 123.227C243.685 123.953 243.79 124.682 244.041 125.353L244.802 124.331C245.2 123.793 245.422 123.118 245.43 122.417C245.439 121.717 245.234 121.034 244.85 120.484Z" fill="#0F27BD"/>
<path d="M215.62 48.8708C214.19 51.2918 212.473 53.481 210.519 55.3779C209.435 56.4334 208.248 57.3445 206.979 58.0929C206.313 58.4787 205.623 58.8084 204.913 59.0794L204.369 59.2785L204.193 59.3328L203.816 59.4504C203.585 59.5126 203.349 59.5549 203.112 59.5771C202.436 59.6355 201.756 59.5652 201.101 59.369C200.276 59.104 199.484 58.7176 198.747 58.2196C198.154 57.8279 197.579 57.402 197.025 56.9435C196.024 56.1019 195.067 55.1954 194.158 54.2285C192.407 52.3528 190.799 50.3122 189.354 48.1287C189.075 47.7034 188.937 47.1815 188.963 46.6532C188.988 46.1249 189.176 45.6234 189.494 45.235C189.812 44.8467 190.24 44.596 190.704 44.5262C191.168 44.4564 191.639 44.5718 192.036 44.8526H192.1C193.99 46.2101 195.896 47.64 197.754 48.9161C198.699 49.5405 199.612 50.1741 200.517 50.6628C200.93 50.9072 201.355 51.1247 201.79 51.3144C202.061 51.4496 202.351 51.5293 202.647 51.5497C202.695 51.5497 202.647 51.4863 202.351 51.4954C202.257 51.4891 202.164 51.4891 202.07 51.4954L201.894 51.5406L202.159 51.3868C202.514 51.1704 202.859 50.9317 203.192 50.6718C203.908 50.1009 204.578 49.4588 205.194 48.7532C206.593 47.0963 207.903 45.3465 209.118 43.5132C209.783 42.6718 210.703 42.1417 211.696 42.0271C212.69 41.9124 213.685 42.2214 214.487 42.8935C215.29 43.5655 215.841 44.5521 216.033 45.6596C216.224 46.7671 216.043 47.9156 215.524 48.8799L215.62 48.8708Z" fill="#0F27BD"/>
<path opacity="0.7" d="M215.62 48.8708C214.19 51.2918 212.473 53.481 210.519 55.3779C209.435 56.4334 208.248 57.3445 206.979 58.0929C206.313 58.4787 205.623 58.8084 204.913 59.0794L204.369 59.2785L204.193 59.3328L203.816 59.4504C203.585 59.5126 203.349 59.5549 203.112 59.5771C202.436 59.6355 201.756 59.5652 201.101 59.369C200.276 59.104 199.484 58.7176 198.747 58.2196C198.154 57.8279 197.579 57.402 197.025 56.9435C196.024 56.1019 195.067 55.1954 194.158 54.2285C192.407 52.3528 190.799 50.3122 189.354 48.1287C189.075 47.7034 188.937 47.1815 188.963 46.6532C188.988 46.1249 189.176 45.6234 189.494 45.235C189.812 44.8467 190.24 44.596 190.704 44.5262C191.168 44.4564 191.639 44.5718 192.036 44.8526H192.1C193.99 46.2101 195.896 47.64 197.754 48.9161C198.699 49.5405 199.612 50.1741 200.517 50.6628C200.93 50.9072 201.355 51.1247 201.79 51.3144C202.061 51.4496 202.351 51.5293 202.647 51.5497C202.695 51.5497 202.647 51.4863 202.351 51.4954C202.257 51.4891 202.164 51.4891 202.07 51.4954L201.894 51.5406L202.159 51.3868C202.514 51.1704 202.859 50.9317 203.192 50.6718C203.908 50.1009 204.578 49.4588 205.194 48.7532C206.593 47.0963 207.903 45.3465 209.118 43.5132C209.783 42.6718 210.703 42.1417 211.696 42.0271C212.69 41.9124 213.685 42.2214 214.487 42.8935C215.29 43.5655 215.841 44.5521 216.033 45.6596C216.224 46.7671 216.043 47.9156 215.524 48.8799L215.62 48.8708Z" fill="white"/>
<path d="M186.35 42.9158L187.287 44.7258C187.287 44.7258 188 47.0969 189.433 47.5314L193.325 46.1105L193.125 45.7394C192.629 44.8887 192.685 43.2325 192.853 41.8569C193.021 40.4813 192.396 40.4361 191.932 40.78C191.603 41.2078 191.372 41.7207 191.259 42.2732C191.068 41.9744 190.857 41.6929 190.627 41.4316L189.441 40.0922C189.193 39.8175 188.861 39.6593 188.514 39.6492C188.166 39.6391 187.828 39.778 187.568 40.0379L186.607 41.0062C186.379 41.2445 186.229 41.5633 186.182 41.9103C186.136 42.2573 186.195 42.6118 186.35 42.9158Z" fill="#0F27BD"/>
<path opacity="0.7" d="M186.35 42.9158L187.287 44.7258C187.287 44.7258 188 47.0969 189.433 47.5314L193.325 46.1105L193.125 45.7394C192.629 44.8887 192.685 43.2325 192.853 41.8569C193.021 40.4813 192.396 40.4361 191.932 40.78C191.603 41.2078 191.372 41.7207 191.259 42.2732C191.068 41.9744 190.857 41.6929 190.627 41.4316L189.441 40.0922C189.193 39.8175 188.861 39.6593 188.514 39.6492C188.166 39.6391 187.828 39.778 187.568 40.0379L186.607 41.0062C186.379 41.2445 186.229 41.5633 186.182 41.9103C186.136 42.2573 186.195 42.6118 186.35 42.9158Z" fill="white"/>
<path d="M222.691 36.3998C218.374 37.693 214.239 39.664 210.407 42.2553C209.809 42.6782 209.34 43.2975 209.062 44.0302C208.784 44.763 208.712 45.5741 208.853 46.355C210.399 54.8983 213.914 66.3376 217.71 73.623L235.416 65.3421C235.537 61.8126 231.236 50.3913 226.856 39.3502C226.071 37.3682 224.557 35.893 222.691 36.3998Z" fill="#0F27BD"/>
<path opacity="0.8" d="M222.691 36.3998C218.374 37.693 214.239 39.664 210.407 42.2553C209.809 42.6782 209.34 43.2975 209.062 44.0302C208.784 44.763 208.712 45.5741 208.853 46.355C210.399 54.8983 213.914 66.3376 217.71 73.623L235.416 65.3421C235.537 61.8126 231.236 50.3913 226.856 39.3502C226.071 37.3682 224.557 35.893 222.691 36.3998Z" fill="white"/>
<path opacity="0.3" d="M229.602 46.3457L226.087 45.0154C226.888 47.3413 229.715 50.2826 231.693 52.0111C231.052 50.2011 230.339 48.3006 229.602 46.3457Z" fill="#0F27BD"/>
<path d="M221.53 27.44C220.065 24.2906 216.901 22.7068 213.105 23.0598C209.902 23.3675 207.067 27.0599 207.404 29.0509C207.74 31.042 210.431 31.8927 210.943 32.5805L208.725 34.3905C208.462 34.6049 208.241 34.8771 208.073 35.1908C207.906 35.5045 207.797 35.8532 207.752 36.2159C207.707 36.5786 207.727 36.9479 207.812 37.3014C207.897 37.6549 208.044 37.9854 208.245 38.273C209.181 39.6124 210.415 40.9881 211.127 42.0017C217.262 41.8207 221.802 39.178 223.444 36.6349C222.827 33.4131 222.956 30.5714 221.53 27.44Z" fill="#0F27BD"/>
<path opacity="0.8" d="M221.53 27.44C220.065 24.2906 216.901 22.7068 213.105 23.0598C209.902 23.3675 207.067 27.0599 207.404 29.0509C207.74 31.042 210.431 31.8927 210.943 32.5805L208.725 34.3905C208.462 34.6049 208.241 34.8771 208.073 35.1908C207.906 35.5045 207.797 35.8532 207.752 36.2159C207.707 36.5786 207.727 36.9479 207.812 37.3014C207.897 37.6549 208.044 37.9854 208.245 38.273C209.181 39.6124 210.415 40.9881 211.127 42.0017C217.262 41.8207 221.802 39.178 223.444 36.6349C222.827 33.4131 222.956 30.5714 221.53 27.44Z" fill="white"/>
<path d="M218.519 29.3949C218.954 30.657 219.049 32.0367 218.791 33.3596C218.532 34.6825 217.933 35.8891 217.068 36.8271C216.203 37.765 215.111 38.3921 213.931 38.629C212.751 38.866 211.535 38.7022 210.437 38.1583C209.339 37.6145 208.409 36.715 207.763 35.5736C207.117 34.4321 206.786 33.1 206.81 31.7456C206.834 30.3912 207.213 29.0753 207.899 27.9642C208.585 26.8531 209.546 25.9967 210.663 25.5033C212.161 24.8436 213.83 24.8828 215.303 25.6125C216.776 26.3421 217.933 27.7025 218.519 29.3949Z" fill="#F17105"/>
<path d="M270.516 110.955C270.428 107.977 270.308 108.24 270.236 105.733C270.188 104.194 270.18 102.484 270.172 101.009C270.169 100.308 269.953 99.63 269.559 99.0892C269.165 98.5483 268.617 98.1777 268.01 98.0401C266.953 97.7958 265.887 97.5695 264.806 97.3161C263.421 96.9813 262.052 96.6193 260.698 96.1758C259.641 95.8319 258.6 95.4518 257.567 95.0264C256.534 94.6011 255.373 94.1214 254.3 93.5603C253.034 92.954 251.785 92.3024 250.552 91.6236C249.166 90.8815 247.797 90.1032 246.428 89.3158C241.158 79.4602 241.046 72.9622 235.392 65.342L223.252 71.5504C223.252 71.5504 232.173 89.4335 238.243 97.0175C241.743 101.38 247.228 103.353 252.121 104.782C255.653 105.805 259.233 106.593 262.812 107.344C264.206 107.633 265.719 107.742 266.921 108.683C267.809 109.453 268.419 110.563 268.634 111.805C268.688 112.059 268.736 112.312 268.778 112.566C268.931 113.326 270.572 112.747 270.516 110.955Z" fill="#0F27BD"/>
<path opacity="0.8" d="M270.516 110.955C270.428 107.977 270.308 108.24 270.236 105.733C270.188 104.194 270.18 102.484 270.172 101.009C270.169 100.308 269.953 99.63 269.559 99.0892C269.165 98.5483 268.617 98.1777 268.01 98.0401C266.953 97.7958 265.887 97.5695 264.806 97.3161C263.421 96.9813 262.052 96.6193 260.698 96.1758C259.641 95.8319 258.6 95.4518 257.567 95.0264C256.534 94.6011 255.373 94.1214 254.3 93.5603C253.034 92.954 251.785 92.3024 250.552 91.6236C249.166 90.8815 247.797 90.1032 246.428 89.3158C241.158 79.4602 241.046 72.9622 235.392 65.342L223.252 71.5504C223.252 71.5504 232.173 89.4335 238.243 97.0175C241.743 101.38 247.228 103.353 252.121 104.782C255.653 105.805 259.233 106.593 262.812 107.344C264.206 107.633 265.719 107.742 266.921 108.683C267.809 109.453 268.419 110.563 268.634 111.805C268.688 112.059 268.736 112.312 268.778 112.566C268.931 113.326 270.572 112.747 270.516 110.955Z" fill="white"/>
<path opacity="0.3" d="M264.358 97.1984C263.877 97.0808 263.397 96.9631 262.908 96.8274C262.949 99.9587 261.651 105.353 261.179 106.991L262.7 107.316C263.697 104.056 264.256 100.646 264.358 97.1984Z" fill="#0F27BD"/>
<path opacity="0.3" d="M270.204 101.009C270.201 100.309 269.986 99.6323 269.593 99.0916C269.201 98.5509 268.656 98.1796 268.049 98.0401L267.249 97.8682C267.377 98.897 267.843 99.8337 268.554 100.493C269.011 100.97 269.559 101.323 270.156 101.524C270.204 101.362 270.204 101.181 270.204 101.009Z" fill="#0F27BD"/>
<path d="M217.39 29.4492C217.71 30.8248 216.349 32.2638 215.268 31.0782C214.259 29.8556 213.154 28.7379 211.968 27.7387C210.855 26.9514 212.337 25.5757 214.09 26.1097C214.839 26.3222 215.53 26.7372 216.105 27.319C216.68 27.9008 217.121 28.6319 217.39 29.4492Z" fill="white"/>
<path d="M217.478 73.1795C216.918 73.4148 217.943 74.5008 217.943 74.5008C217.943 74.5008 229.154 70.1658 235.961 65.7041C235.977 65.434 235.937 65.1633 235.842 64.9146C235.747 64.6659 235.601 64.4464 235.416 64.2742C229.591 67.6232 223.602 70.5964 217.478 73.1795Z" fill="#0F27BD"/>
<path opacity="0.5" d="M217.478 73.1795C216.918 73.4148 217.943 74.5008 217.943 74.5008C217.943 74.5008 229.154 70.1658 235.961 65.7041C235.977 65.434 235.937 65.1633 235.842 64.9146C235.747 64.6659 235.601 64.4464 235.416 64.2742C229.591 67.6232 223.602 70.5964 217.478 73.1795Z" fill="white"/>
<path d="M225.726 35.8025C227.937 37.0695 230.011 38.3999 232.133 39.8751C233.166 40.6172 234.191 41.3683 235.208 42.1829C236.225 42.9974 237.234 43.83 238.251 44.7712L238.628 45.1241L239.1 45.6129C239.382 45.8975 239.649 46.1997 239.901 46.5179C240.157 46.8346 240.373 47.1423 240.582 47.4229C240.79 47.7034 241.014 48.0383 241.198 48.3279C241.944 49.4914 242.634 50.6998 243.264 51.9479C244.505 54.3683 245.576 56.895 246.468 59.5048C246.632 59.9979 246.641 60.5402 246.492 61.0396C246.343 61.539 246.045 61.9646 245.65 62.244C245.254 62.5235 244.785 62.6395 244.323 62.5724C243.86 62.5053 243.432 62.2592 243.112 61.8759L243.072 61.8216C241.47 59.8939 239.925 57.8667 238.371 55.9752C236.818 54.0838 235.24 52.1651 233.935 51.3235C232.117 50.0474 230.091 48.7713 228.081 47.5224L222.027 43.7214C221.088 43.1597 220.385 42.1996 220.073 41.0523C219.76 39.905 219.864 38.6644 220.361 37.6035C220.858 36.5426 221.708 35.7482 222.723 35.3952C223.738 35.0422 224.836 35.1594 225.774 35.7211L225.726 35.8025Z" fill="#0F27BD"/>
<path opacity="0.8" d="M225.726 35.8025C227.937 37.0695 230.011 38.3999 232.133 39.8751C233.166 40.6172 234.191 41.3683 235.208 42.1829C236.225 42.9974 237.234 43.83 238.251 44.7712L238.628 45.1241L239.1 45.6129C239.382 45.8975 239.649 46.1997 239.901 46.5179C240.157 46.8346 240.373 47.1423 240.582 47.4229C240.79 47.7034 241.014 48.0383 241.198 48.3279C241.944 49.4914 242.634 50.6998 243.264 51.9479C244.505 54.3683 245.576 56.895 246.468 59.5048C246.632 59.9979 246.641 60.5402 246.492 61.0396C246.343 61.539 246.045 61.9646 245.65 62.244C245.254 62.5235 244.785 62.6395 244.323 62.5724C243.86 62.5053 243.432 62.2592 243.112 61.8759L243.072 61.8216C241.47 59.8939 239.925 57.8667 238.371 55.9752C236.818 54.0838 235.24 52.1651 233.935 51.3235C232.117 50.0474 230.091 48.7713 228.081 47.5224L222.027 43.7214C221.088 43.1597 220.385 42.1996 220.073 41.0523C219.76 39.905 219.864 38.6644 220.361 37.6035C220.858 36.5426 221.708 35.7482 222.723 35.3952C223.738 35.0422 224.836 35.1594 225.774 35.7211L225.726 35.8025Z" fill="white"/>
<path d="M248.365 64.0207L247.685 62.093C247.685 62.093 247.308 59.6314 245.955 58.9436L241.951 59.6586L242.087 60.0568C242.455 60.9618 242.175 62.618 241.815 63.9393C241.454 65.2606 242.063 65.4325 242.576 65.1701C242.864 65.0253 243.144 64.437 243.448 63.8126C243.598 64.1272 243.766 64.4296 243.953 64.7176L244.938 66.2471C245.144 66.564 245.448 66.7812 245.79 66.8551C246.131 66.9289 246.485 66.854 246.78 66.6453L247.869 65.8579C248.124 65.6607 248.312 65.3715 248.402 65.0376C248.492 64.7038 248.479 64.3452 248.365 64.0207Z" fill="#0F27BD"/>
<path opacity="0.8" d="M248.365 64.0207L247.685 62.093C247.685 62.093 247.308 59.6314 245.955 58.9436L241.951 59.6586L242.087 60.0568C242.455 60.9618 242.175 62.618 241.815 63.9393C241.454 65.2606 242.063 65.4325 242.576 65.1701C242.864 65.0253 243.144 64.437 243.448 63.8126C243.598 64.1272 243.766 64.4296 243.953 64.7176L244.938 66.2471C245.144 66.564 245.448 66.7812 245.79 66.8551C246.131 66.9289 246.485 66.854 246.78 66.6453L247.869 65.8579C248.124 65.6607 248.312 65.3715 248.402 65.0376C248.492 64.7038 248.479 64.3452 248.365 64.0207Z" fill="white"/>
<path opacity="0.3" d="M222.347 46.21L221.37 46.3005L215.372 62.6631C215.7 62.6897 216.029 62.6592 216.349 62.5726C216.349 62.5726 224.165 59.2783 226.527 58.0475C224.942 54.346 222.347 46.21 222.347 46.21Z" fill="#0F27BD"/>
<path d="M211.4 50.4998C212.129 54.7771 213.482 58.8876 215.404 62.6632C218.335 61.5228 223.22 59.3689 225.59 58.1381C223.997 54.2781 222.583 50.3269 221.354 46.3005C218.847 46.4906 213.346 48.8708 211.4 50.4998Z" fill="white"/>
<path opacity="0.3" d="M217.35 54.0384C217.233 54.4809 217.002 54.8743 216.687 55.1688C216.372 55.4632 215.987 55.6454 215.581 55.6924C215.174 55.7394 214.764 55.649 214.403 55.4328C214.042 55.2165 213.745 54.884 213.552 54.4774C213.358 54.0707 213.275 53.6082 213.313 53.1484C213.352 52.6885 213.511 52.252 213.769 51.894C214.027 51.536 214.374 51.2727 214.765 51.1372C215.155 51.0018 215.573 51.0005 215.964 51.1333C216.489 51.3112 216.929 51.7171 217.189 52.2618C217.449 52.8066 217.507 53.4455 217.35 54.0384Z" fill="#0F27BD"/>
<path opacity="0.6" d="M218.879 50.9251C218.848 51.0762 218.777 51.2131 218.676 51.3178C218.575 51.4225 218.448 51.4902 218.312 51.5119C218.176 51.5336 218.037 51.5084 217.914 51.4396C217.791 51.3707 217.69 51.2614 217.622 51.1261C217.555 50.9907 217.526 50.8356 217.538 50.6811C217.551 50.5266 217.604 50.3799 217.692 50.2603C217.779 50.1407 217.896 50.0538 218.028 50.0109C218.16 49.968 218.3 49.9712 218.431 50.0201C218.593 50.0788 218.73 50.2048 218.813 50.3728C218.896 50.5407 218.92 50.7381 218.879 50.9251Z" fill="#0F27BD"/>
<path opacity="0.6" d="M220.673 50.1379C220.654 50.2429 220.616 50.3423 220.562 50.4297C220.507 50.5171 220.436 50.5907 220.355 50.6456C220.274 50.7006 220.183 50.7357 220.089 50.7488C219.995 50.7619 219.9 50.7526 219.809 50.7216C219.718 50.6906 219.634 50.6385 219.562 50.5687C219.49 50.4989 219.432 50.4129 219.391 50.3162C219.351 50.2195 219.328 50.1143 219.325 50.0072C219.323 49.9001 219.34 49.7936 219.376 49.6944C219.401 49.5987 219.443 49.5096 219.5 49.4322C219.556 49.3549 219.625 49.2908 219.703 49.2437C219.781 49.1966 219.867 49.1675 219.955 49.1578C220.043 49.1482 220.132 49.1583 220.217 49.1876C220.388 49.2463 220.532 49.379 220.617 49.5568C220.703 49.7347 220.723 49.9435 220.673 50.1379Z" fill="#0F27BD"/>
<path opacity="0.5" d="M223.188 57.1879L215.78 60.4912L215.34 58.8441L222.739 55.5408L223.188 57.1879Z" fill="#0F27BD"/>
<path opacity="0.2" d="M182.322 182.966C182.305 188.236 181.855 193.493 180.977 198.668C180.032 203.32 178.564 206.723 176.572 208.877C175.645 209.917 174.543 210.739 173.332 211.293C172.121 211.848 170.824 212.125 169.517 212.108C165.401 212.108 162.259 209.57 160.091 204.496C159.711 203.585 159.387 202.644 159.122 201.682C154.545 206.125 150.282 210.967 146.373 216.162L142.121 221.827C144.41 224.449 147.05 226.645 149.945 228.334C154.932 231.249 161.477 232.709 169.581 232.715C171.007 232.715 172.384 232.669 173.721 232.579C178.624 224.38 182.682 215.574 185.814 206.334L197.706 171.292L182.322 182.966Z" fill="#131418"/>
<path d="M75.1167 230.778L89.131 246.616L128.371 204.831C114.845 198.994 88.5464 215.565 75.1167 230.778Z" fill="#F17105"/>
<path d="M123.991 285.984C119.514 280.916 109.977 270.146 109.977 270.146L146.95 225.801C152.084 241.05 137.421 270.798 123.991 285.984Z" fill="#F17105"/>
<path d="M177.629 186.161L192.917 152.847L163.439 170.142C153.97 175.692 145.228 182.697 137.46 190.957L87.209 244.417L111.898 272.318L159.202 215.529C166.516 206.748 172.717 196.865 177.629 186.161Z" fill="#0F27BD"/>
<path opacity="0.6" d="M177.629 186.161L192.917 152.847L163.439 170.142C153.97 175.692 145.228 182.697 137.46 190.957L87.209 244.417L111.898 272.318L159.202 215.529C166.516 206.748 172.717 196.865 177.629 186.161Z" fill="white"/>
<path d="M146.237 217.275C151.943 217.275 156.568 212.048 156.568 205.6C156.568 199.153 151.943 193.926 146.237 193.926C140.532 193.926 135.907 199.153 135.907 205.6C135.907 212.048 140.532 217.275 146.237 217.275Z" fill="white"/>
<path d="M146.237 213.103C149.904 213.103 152.876 209.744 152.876 205.601C152.876 201.457 149.904 198.098 146.237 198.098C142.571 198.098 139.599 201.457 139.599 205.601C139.599 209.744 142.571 213.103 146.237 213.103Z" fill="#0F27BD"/>
<path opacity="0.3" d="M120.251 262.29L96.0742 234.968L115.87 213.917L138.878 239.928L120.251 262.29Z" fill="#0F27BD"/>
<path d="M80.5864 255.774C62.4879 257.431 56.4898 270.526 54.4397 287.929C53.3986 296.808 52.9342 305.794 46.3434 310.989C45.9469 311.294 45.6484 311.735 45.4926 312.248C45.3367 312.76 45.3319 313.316 45.4789 313.831C45.6259 314.347 45.9168 314.795 46.3079 315.108C46.6991 315.421 47.1695 315.583 47.6488 315.569C71.9456 314.709 83.2771 301.269 84.7026 295.658C84.3284 298.592 83.6594 301.467 82.7085 304.229C82.5338 304.716 82.4995 305.253 82.6107 305.764C82.722 306.275 82.9729 306.733 83.3279 307.073C83.6829 307.413 84.1238 307.617 84.5877 307.658C85.0517 307.698 85.5151 307.572 85.9118 307.297C92.7268 302.473 101.28 293.586 101.848 279.169C96.835 271.142 80.5864 255.774 80.5864 255.774Z" fill="#0F27BD"/>
<path opacity="0.2" d="M80.5864 255.774C62.4879 257.431 56.4898 270.526 54.4397 287.929C53.3986 296.808 52.9342 305.794 46.3434 310.989C45.9469 311.294 45.6484 311.735 45.4926 312.248C45.3367 312.76 45.3319 313.316 45.4789 313.831C45.6259 314.347 45.9168 314.795 46.3079 315.108C46.6991 315.421 47.1695 315.583 47.6488 315.569C71.9456 314.709 83.2771 301.269 84.7026 295.658C84.3284 298.592 83.6594 301.467 82.7085 304.229C82.5338 304.716 82.4995 305.253 82.6107 305.764C82.722 306.275 82.9729 306.733 83.3279 307.073C83.6829 307.413 84.1238 307.617 84.5877 307.658C85.0517 307.698 85.5151 307.572 85.9118 307.297C92.7268 302.473 101.28 293.586 101.848 279.169C96.835 271.142 80.5864 255.774 80.5864 255.774Z" fill="white"/>
<path d="M104.659 285.35L75.6694 252.589L91.1092 248.815L107.998 267.902L104.659 285.35Z" fill="#0F27BD"/>
</svg>
