<svg width="134" height="23" viewBox="0 0 134 23" fill="none" xmlns="http://www.w3.org/2000/svg">
<path d="M7.52 22.352C9.792 22.352 11.328 21.296 12 20.304L10.88 17.104C10.432 18 9.536 18.992 8.32 18.992C7.264 18.992 6.464 18.576 6.464 16.88V9.2H11.232V6.416H6.464V2.256L2.88 4.528V6.416H0.448V9.2H2.88V17.744C2.88 20.496 4.576 22.352 7.52 22.352ZM20.3 22.32C23.756 22.32 25.868 20.752 27.052 18.96L24.844 16.656C24.268 17.968 23.052 19.376 20.332 19.376C17.868 19.376 16.236 17.872 16.044 15.088H27.18C27.244 14.768 27.308 14.096 27.308 13.52C27.308 9.2 24.716 6.096 20.044 6.096C15.66 6.096 12.62 9.328 12.62 14.224C12.62 19.088 15.66 22.32 20.3 22.32ZM20.044 8.976C22.412 8.976 23.82 10.32 24.076 12.784H16.076C16.364 10.256 17.836 8.976 20.044 8.976ZM37.515 22.32C41.419 22.32 43.883 20.112 44.715 17.168L41.483 15.568C41.131 17.808 40.011 19.312 37.579 19.312C35.115 19.312 33.611 17.488 33.611 14.224C33.611 10.928 35.115 9.104 37.579 9.104C39.979 9.104 41.131 10.608 41.483 12.848L44.715 11.248C43.883 8.304 41.419 6.096 37.515 6.096C32.875 6.096 29.963 9.36 29.963 14.224C29.963 19.056 32.875 22.32 37.515 22.32ZM51.0658 22V13.264C51.0658 10.704 51.9618 9.008 54.5858 9.008C56.9858 9.008 57.6258 10.32 57.6258 12.24V22H61.2418V11.152C61.2418 7.92 59.3858 6.096 56.3458 6.096C53.2418 6.096 51.6418 8.208 51.0658 10.672V0.559999H47.4818V22H51.0658Z" fill="#0F27BD"/>
<path d="M69.472 22V13.264C69.472 10.704 70.368 9.008 72.48 9.008C74.592 9.008 75.488 10.096 75.488 12.24V22H79.072V13.264C79.072 10.704 79.968 9.008 82.08 9.008C84.192 9.008 85.088 10.096 85.088 12.24V22H88.672V11.152C88.672 7.92 87.104 6.096 84.128 6.096C81.152 6.096 79.616 8.24 79.072 10.704C78.912 7.76 77.376 6.096 74.528 6.096C71.584 6.096 70.048 8.208 69.472 10.672V6.416H65.888V22H69.472ZM95.684 22.32C98.948 22.32 100.452 19.888 100.932 17.84V18.992C100.932 21.232 102.244 22 103.908 22H106.116V18.928H105.124C104.548 18.928 104.292 18.704 104.292 18V12.144C104.292 8.304 102.116 6.096 98.244 6.096C94.788 6.096 92.356 7.888 91.14 9.552L93.284 12.112C94.18 10.48 95.812 9.264 97.892 9.264C100.036 9.264 100.74 10.32 100.868 11.888L95.652 14.096C93.124 15.088 91.588 16.432 91.588 18.64C91.588 20.88 93.124 22.32 95.684 22.32ZM95.044 18.096C95.044 17.296 95.588 16.752 96.932 16.144L100.932 14.352V16.016C100.932 18.128 99.332 19.536 96.964 19.536C95.652 19.536 95.044 18.992 95.044 18.096ZM112.441 22V13.424C112.441 10.832 114.105 8.784 115.897 8.784C116.953 8.784 117.369 9.488 117.369 10.352C117.369 11.248 116.889 12.272 116.377 12.784H120.057C120.345 12.304 120.761 11.184 120.761 9.68C120.761 7.376 119.321 6.096 117.369 6.096C114.585 6.096 113.017 8.336 112.441 10.832V6.416H108.857V22H112.441ZM128.77 22.352C131.042 22.352 132.578 21.296 133.25 20.304L132.13 17.104C131.682 18 130.786 18.992 129.57 18.992C128.514 18.992 127.714 18.576 127.714 16.88V9.2H132.482V6.416H127.714V2.256L124.13 4.528V6.416H121.698V9.2H124.13V17.744C124.13 20.496 125.826 22.352 128.77 22.352Z" fill="#F17105"/>
</svg>
