<svg width="16" height="24" viewBox="0 0 16 24" fill="none" xmlns="http://www.w3.org/2000/svg">
<g opacity="0.5">
<path d="M12.5605 5.99853V17.4985C12.5605 19.7085 10.5468 21.4985 8.06055 21.4985C5.5743 21.4985 3.56055 19.7085 3.56055 17.4985V4.99853C3.56055 4.33549 3.85686 3.69961 4.38431 3.23077C4.91175 2.76193 5.62713 2.49854 6.37305 2.49854C7.11897 2.49854 7.83434 2.76193 8.36178 3.23077C8.88923 3.69961 9.18555 4.33549 9.18555 4.99853V15.4985C9.18555 16.0485 8.6793 16.4985 8.06055 16.4985C7.4418 16.4985 6.93555 16.0485 6.93555 15.4985V5.99853H5.24805V15.4985C5.24805 16.1616 5.54436 16.7975 6.07181 17.2663C6.59925 17.7351 7.31462 17.9985 8.06055 17.9985C8.80647 17.9985 9.52184 17.7351 10.0493 17.2663C10.5767 16.7975 10.873 16.1616 10.873 15.4985V4.99853C10.873 2.78853 8.8593 0.998535 6.37305 0.998535C3.8868 0.998535 1.87305 2.78853 1.87305 4.99853V17.4985C1.87305 20.5385 4.64055 22.9985 8.06055 22.9985C11.4805 22.9985 14.248 20.5385 14.248 17.4985V5.99853H12.5605Z" fill="#0F27BD"/>
</g>
</svg>
