<svg width="28" height="28" viewBox="0 0 28 28" fill="none" xmlns="http://www.w3.org/2000/svg">
<path fill-rule="evenodd" clip-rule="evenodd" d="M16.8284 12.9775H20.5188C21.0784 12.9775 21.518 12.5149 21.518 11.957C21.518 11.3855 21.0784 10.9365 20.5188 10.9365H16.8284C16.2688 10.9365 15.8291 11.3855 15.8291 11.957C15.8291 12.5149 16.2688 12.9775 16.8284 12.9775ZM24.9021 5.90333C25.7148 5.90333 26.2477 6.18907 26.7806 6.81498C27.3135 7.4409 27.4068 8.33894 27.2869 9.15399L26.0212 18.08C25.7814 19.7959 24.3425 21.0599 22.6505 21.0599H8.11514C6.34319 21.0599 4.87767 19.6734 4.73111 17.8773L3.5054 3.04454L1.49364 2.69077C0.96072 2.59552 0.587677 2.06485 0.680938 1.52058C0.774198 0.964065 1.29379 0.595321 1.84003 0.678323L5.01756 1.16681C5.47054 1.24981 5.80361 1.62944 5.84358 2.09207L6.09672 5.13999C6.13669 5.57677 6.48308 5.90333 6.90942 5.90333H24.9021ZM7.90171 23.2105C6.78258 23.2105 5.87662 24.1357 5.87662 25.2787C5.87662 26.4081 6.78258 27.3333 7.90171 27.3333C9.00751 27.3333 9.91348 26.4081 9.91348 25.2787C9.91348 24.1357 9.00751 23.2105 7.90171 23.2105ZM22.89 23.2105C21.7709 23.2105 20.8649 24.1357 20.8649 25.2787C20.8649 26.4081 21.7709 27.3333 22.89 27.3333C23.9958 27.3333 24.9018 26.4081 24.9018 25.2787C24.9018 24.1357 23.9958 23.2105 22.89 23.2105Z" fill="#717591"/>
</svg>
