<svg width="42" height="42" viewBox="0 0 42 42" fill="none" xmlns="http://www.w3.org/2000/svg">
<path fill-rule="evenodd" clip-rule="evenodd" d="M11.9785 0.165039H30.041C37.1035 0.165039 41.8327 5.12337 41.8327 12.4984V29.5213C41.8327 36.8755 37.1035 41.8317 30.041 41.8317H11.9785C4.91602 41.8317 0.166016 36.8755 0.166016 29.5213V12.4984C0.166016 5.12337 4.91602 0.165039 11.9785 0.165039ZM27.2702 27.2484C27.9785 26.5421 27.9785 25.3963 27.2702 24.688L23.5618 20.9796L27.2702 17.2692C27.9785 16.563 27.9785 15.3963 27.2702 14.688C26.5618 13.9775 25.416 13.9775 24.6868 14.688L20.9993 18.3942L17.291 14.688C16.5618 13.9775 15.416 13.9775 14.7077 14.688C13.9993 15.3963 13.9993 16.563 14.7077 17.2692L18.416 20.9796L14.7077 24.6671C13.9993 25.3963 13.9993 26.5421 14.7077 27.2484C15.0618 27.6025 15.541 27.7921 15.9993 27.7921C16.4785 27.7921 16.9368 27.6025 17.291 27.2484L20.9993 23.563L24.7077 27.2484C25.0618 27.6255 25.5202 27.7921 25.9785 27.7921C26.4577 27.7921 26.916 27.6025 27.2702 27.2484Z" fill="#0F27BD"/>
</svg>
