<svg width="5" height="20" viewBox="0 0 5 20" fill="none" xmlns="http://www.w3.org/2000/svg">
<path d="M5 2.79481C5 2.19962 4.76295 1.62881 4.34099 1.20795C3.91903 0.787086 3.34674 0.55065 2.75 0.55065C2.15326 0.55065 1.58097 0.787086 1.15901 1.20795C0.737053 1.62881 0.5 2.19962 0.5 2.79481C0.5 3.38999 0.737053 3.9608 1.15901 4.38166C1.58097 4.80252 2.15326 5.03896 2.75 5.03896C3.34674 5.03896 3.91903 4.80252 4.34099 4.38166C4.76295 3.9608 5 3.38999 5 2.79481ZM5 10.2753C5 9.68014 4.76295 9.10933 4.34099 8.68847C3.91903 8.26761 3.34674 8.03117 2.75 8.03117C2.15326 8.03117 1.58097 8.26761 1.15901 8.68847C0.737053 9.10933 0.5 9.68014 0.5 10.2753C0.5 10.8705 0.737053 11.4413 1.15901 11.8622C1.58097 12.283 2.15326 12.5195 2.75 12.5195C3.34674 12.5195 3.91903 12.283 4.34099 11.8622C4.76295 11.4413 5 10.8705 5 10.2753ZM5 17.7558C5 17.1607 4.76295 16.5898 4.34099 16.169C3.91903 15.7481 3.34674 15.5117 2.75 15.5117C2.15326 15.5117 1.58097 15.7481 1.15901 16.169C0.737053 16.5898 0.5 17.1607 0.5 17.7558C0.5 18.351 0.737053 18.9218 1.15901 19.3427C1.58097 19.7636 2.15326 20 2.75 20C3.34674 20 3.91903 19.7636 4.34099 19.3427C4.76295 18.9218 5 18.351 5 17.7558Z" fill="#071255"/>
</svg>
