<svg width="48" height="49" viewBox="0 0 48 49" fill="none" xmlns="http://www.w3.org/2000/svg">
<circle cx="24" cy="24.0635" r="24" fill="#FAFAFB"/>
<path fill-rule="evenodd" clip-rule="evenodd" d="M24 16.0635C21.8267 16.0635 21.556 16.0728 20.7013 16.1128C17.7947 16.2461 16.1813 17.8581 16.048 20.7648C16.0093 21.6195 16 21.8915 16 24.0635C16 26.2368 16.0093 26.5088 16.048 27.3621C16.1813 30.2675 17.7947 31.8821 20.7013 32.0155C21.556 32.0541 21.8267 32.0635 24 32.0635C26.1733 32.0635 26.4453 32.0541 27.3 32.0155C30.2013 31.8821 31.8213 30.2701 31.952 27.3621C31.9907 26.5088 32 26.2368 32 24.0635C32 21.8915 31.9907 21.6195 31.952 20.7648C31.8213 17.8621 30.2067 16.2448 27.3 16.1128C26.4453 16.0728 26.1733 16.0635 24 16.0635ZM24 17.5063C26.136 17.5063 26.3893 17.5143 27.2333 17.553C29.4027 17.6517 30.4133 18.6797 30.5133 20.8317C30.5507 21.6757 30.5587 21.9277 30.5587 24.0637C30.5587 26.1997 30.5507 26.453 30.5133 27.2957C30.4133 29.4463 29.404 30.477 27.2333 30.5757C26.3893 30.613 26.1373 30.6223 24 30.6223C21.864 30.6223 21.6107 30.6143 20.768 30.5757C18.5947 30.4757 17.588 29.4437 17.488 27.2957C17.4507 26.453 17.4413 26.1997 17.4413 24.0637C17.4413 21.9277 17.4507 21.6743 17.488 20.8317C17.5867 18.6783 18.5973 17.6503 20.768 17.5517C21.6107 17.513 21.864 17.5063 24 17.5063ZM19.892 24.0635C19.892 21.7941 21.732 19.9555 24 19.9555C26.268 19.9555 28.108 21.7955 28.108 24.0635C28.108 26.3328 26.268 28.1715 24 28.1715C21.732 28.1715 19.892 26.3328 19.892 24.0635ZM24 26.7303C22.5266 26.7303 21.3333 25.537 21.3333 24.0636C21.3333 22.5916 22.5266 21.397 24 21.397C25.472 21.397 26.668 22.5903 26.668 24.0636C26.668 25.537 25.472 26.7303 24 26.7303ZM27.3096 19.794C27.3096 19.2633 27.7402 18.834 28.2696 18.834C28.8016 18.834 29.2309 19.2633 29.2309 19.794C29.2309 20.3247 28.8002 20.754 28.2696 20.754C27.7389 20.754 27.3096 20.3233 27.3096 19.794Z" fill="#0F27BD"/>
</svg>
