<svg width="44" height="15" viewBox="0 0 44 15" fill="none" xmlns="http://www.w3.org/2000/svg">
<path d="M1.76659 8.31194C1.23429 8.16471 0.68342 8.47687 0.536189 9.00917C0.388958 9.54146 0.701116 10.0923 1.23341 10.2396L1.76659 8.31194ZM42.9585 10.1644C43.4493 9.91121 43.6419 9.30805 43.3887 8.81724L39.2621 0.819052C39.0088 0.328243 38.4057 0.135648 37.9149 0.388878C37.4241 0.642108 37.2315 1.24527 37.4847 1.73608L41.1528 8.84558L34.0433 12.5137C33.5525 12.7669 33.3599 13.3701 33.6131 13.8609C33.8664 14.3517 34.4695 14.5443 34.9603 14.2911L42.9585 10.1644ZM1.23341 10.2396C9.55533 12.5414 14.6772 10.7391 20.1969 9.333C25.6199 7.95154 31.6572 6.8633 42.1958 10.2284L42.8042 8.32314C31.8178 4.81507 25.3843 5.94767 19.7031 7.3949C14.1186 8.81751 9.503 10.4518 1.76659 8.31194L1.23341 10.2396Z" fill="#F17105"/>
</svg>
