<svg width="48" height="49" viewBox="0 0 48 49" fill="none" xmlns="http://www.w3.org/2000/svg">
<circle cx="24" cy="24.0635" r="24" fill="#FAFAFB"/>
<g clip-path="url(#clip0_1_2)">
<path d="M21.0002 29.2822H18.8127V22.2197H21.0002V29.2822ZM21.2185 19.9696C21.2185 19.2625 20.6448 18.6885 19.938 18.6885C19.2285 18.6885 18.6562 19.2625 18.6562 19.9696C18.6562 20.677 19.2285 21.251 19.938 21.251C20.6448 21.251 21.2185 20.677 21.2185 19.9696ZM29.1875 25.3967C29.1875 23.5009 28.787 22.0947 26.5723 22.0947C25.5081 22.0947 24.7937 22.627 24.5021 23.1804H24.5V22.2197H22.375V29.2822H24.5V25.7756C24.5 24.8573 24.7338 23.9677 25.8721 23.9677C26.9949 23.9677 27.0312 25.0178 27.0312 25.834V29.2822H29.1875V25.3967ZM32 30.1885V17.9385C32 16.9045 31.1589 16.0635 30.125 16.0635H17.875C16.8411 16.0635 16 16.9045 16 17.9385V30.1885C16 31.2224 16.8411 32.0635 17.875 32.0635H30.125C31.1589 32.0635 32 31.2224 32 30.1885ZM30.125 17.3135C30.4696 17.3135 30.75 17.5939 30.75 17.9385V30.1885C30.75 30.5331 30.4696 30.8135 30.125 30.8135H17.875C17.5304 30.8135 17.25 30.5331 17.25 30.1885V17.9385C17.25 17.5939 17.5304 17.3135 17.875 17.3135H30.125Z" fill="#0F27BD"/>
</g>
<defs>
<clipPath id="clip0_1_2">
<rect width="16" height="16" fill="white" transform="translate(16 16.0635)"/>
</clipPath>
</defs>
</svg>
