<svg width="75" height="34" viewBox="0 0 75 34" fill="none" xmlns="http://www.w3.org/2000/svg">
<path d="M4.617 24.5V17.129C4.617 14.969 5.373 13.538 7.155 13.538C8.937 13.538 9.693 14.456 9.693 16.265V24.5H12.717V17.129C12.717 14.969 13.473 13.538 15.255 13.538C17.037 13.538 17.793 14.456 17.793 16.265V24.5H20.817V15.347C20.817 12.62 19.494 11.081 16.983 11.081C14.472 11.081 13.176 12.89 12.717 14.969C12.582 12.485 11.286 11.081 8.883 11.081C6.399 11.081 5.103 12.863 4.617 14.942V11.351H1.593V24.5H4.617ZM26.7334 24.77C29.4874 24.77 30.7564 22.718 31.1614 20.99V21.962C31.1614 23.852 32.2684 24.5 33.6724 24.5H35.5354V21.908H34.6984C34.2124 21.908 33.9964 21.719 33.9964 21.125V16.184C33.9964 12.944 32.1604 11.081 28.8934 11.081C25.9774 11.081 23.9254 12.593 22.8994 13.997L24.7084 16.157C25.4644 14.78 26.8414 13.754 28.5964 13.754C30.4054 13.754 30.9994 14.645 31.1074 15.968L26.7064 17.831C24.5734 18.668 23.2774 19.802 23.2774 21.665C23.2774 23.555 24.5734 24.77 26.7334 24.77ZM26.1934 21.206C26.1934 20.531 26.6524 20.072 27.7864 19.559L31.1614 18.047V19.451C31.1614 21.233 29.8114 22.421 27.8134 22.421C26.7064 22.421 26.1934 21.962 26.1934 21.206ZM40.8719 24.5V17.264C40.8719 15.077 42.2759 13.349 43.7879 13.349C44.6789 13.349 45.0299 13.943 45.0299 14.672C45.0299 15.428 44.6249 16.292 44.1929 16.724H47.2979C47.5409 16.319 47.8919 15.374 47.8919 14.105C47.8919 12.161 46.6769 11.081 45.0299 11.081C42.6809 11.081 41.3579 12.971 40.8719 15.077V11.351H37.8479V24.5H40.8719ZM54.6497 24.797C56.5667 24.797 57.8627 23.906 58.4297 23.069L57.4847 20.369C57.1067 21.125 56.3507 21.962 55.3247 21.962C54.4337 21.962 53.7587 21.611 53.7587 20.18V13.7H57.7817V11.351H53.7587V7.841L50.7347 9.758V11.351H48.6827V13.7H50.7347V20.909C50.7347 23.231 52.1657 24.797 54.6497 24.797Z" fill="#0F27BD"/>
<path d="M73.85 24.5V21.8H65.075L62.996 21.935L65.129 19.424L73.31 8.813V6.41H60.107V9.11H67.343L69.908 8.975L67.235 12.134L59.567 22.097V24.5H73.85Z" fill="#F17105"/>
</svg>
