<svg width="50" height="50" viewBox="0 0 50 50" fill="none" xmlns="http://www.w3.org/2000/svg">
<rect opacity="0.5" x="0.458333" y="0.458333" width="49.0833" height="49.0833" rx="12.375" stroke="#0F27BD" stroke-width="0.916667"/>
<path fill-rule="evenodd" clip-rule="evenodd" d="M16.9792 25C16.9792 24.6203 17.2871 24.3125 17.6667 24.3125L32.333 24.3125C32.7127 24.3125 33.0205 24.6203 33.0205 25C33.0205 25.3797 32.7127 25.6875 32.333 25.6875H17.6667C17.2871 25.6875 16.9792 25.3797 16.9792 25ZM19.9887 31.4167C19.9887 31.037 20.2965 30.7292 20.6762 30.7292L32.3334 30.7292C32.7131 30.7292 33.0209 31.037 33.0209 31.4167C33.0209 31.7964 32.7131 32.1042 32.3334 32.1042L20.6762 32.1042C20.2965 32.1042 19.9887 31.7964 19.9887 31.4167ZM25.2035 18.5834C25.2035 18.2037 25.5113 17.8959 25.891 17.8959L32.3334 17.8959C32.7131 17.8959 33.0209 18.2037 33.0209 18.5834C33.0209 18.9631 32.7131 19.2709 32.3334 19.2709L25.891 19.2709C25.5113 19.2709 25.2035 18.9631 25.2035 18.5834Z" fill="#0F27BD"/>
</svg>
