<svg width="18" height="16" viewBox="0 0 18 16" fill="none" xmlns="http://www.w3.org/2000/svg">
<path fill-rule="evenodd" clip-rule="evenodd" d="M0.979126 7.99992C0.979126 7.62022 1.28693 7.31242 1.66663 7.31242L16.3329 7.31242C16.7126 7.31242 17.0204 7.62022 17.0204 7.99992C17.0204 8.37961 16.7126 8.68742 16.3329 8.68742H1.66663C1.28693 8.68742 0.979126 8.37961 0.979126 7.99992ZM3.98861 14.4166C3.98861 14.0369 4.29641 13.7291 4.67611 13.7291L16.3333 13.7291C16.713 13.7291 17.0208 14.0369 17.0208 14.4166C17.0208 14.7963 16.713 15.1041 16.3333 15.1041L4.67611 15.1041C4.29641 15.1041 3.98861 14.7963 3.98861 14.4166ZM9.20333 1.58325C9.20333 1.20356 9.51114 0.895752 9.89083 0.895752L16.3333 0.895752C16.713 0.895752 17.0208 1.20356 17.0208 1.58325C17.0208 1.96295 16.713 2.27075 16.3333 2.27075L9.89083 2.27075C9.51114 2.27075 9.20333 1.96295 9.20333 1.58325Z" fill="#0F27BD"/>
</svg>
