<svg width="11" height="12" viewBox="0 0 11 12" fill="none" xmlns="http://www.w3.org/2000/svg">
<path d="M10.6092 7.131C10.5526 7.189 10.3386 7.437 10.1393 7.641C8.9709 8.924 5.92284 11.024 4.32749 11.665C4.08521 11.768 3.47266 11.986 3.14539 12C2.83179 12 2.53284 11.928 2.24758 11.782C1.89197 11.578 1.6067 11.257 1.45039 10.878C1.34976 10.615 1.19345 9.828 1.19345 9.814C1.03714 8.953 0.951172 7.554 0.951172 6.008C0.951172 4.535 1.03714 3.193 1.16512 2.319C1.17978 2.305 1.33609 1.327 1.50705 0.992C1.82065 0.38 2.4332 0 3.08872 0H3.14539C3.57231 0.015 4.47012 0.395 4.47012 0.409C5.9795 1.051 8.95723 3.048 10.154 4.375C10.154 4.375 10.491 4.716 10.6376 4.929C10.8662 5.235 10.9795 5.614 10.9795 5.993C10.9795 6.416 10.8515 6.81 10.6092 7.131Z" fill="#252730"/>
</svg>
