<svg width="60" height="60" viewBox="0 0 60 60" fill="none" xmlns="http://www.w3.org/2000/svg">
<rect width="60" height="60" rx="30" fill="#E7E9F8"/>
<path d="M37.9518 32.6975L36.8684 30.8991C36.6409 30.4983 36.4351 29.74 36.4351 29.2958V26.555C36.4351 24.0091 34.9401 21.81 32.7843 20.7808C32.2209 19.7841 31.1809 19.1666 29.9893 19.1666C28.8084 19.1666 27.7468 19.8058 27.1834 20.8133C25.0709 21.8641 23.6084 24.0416 23.6084 26.555V29.2958C23.6084 29.74 23.4026 30.4983 23.1751 30.8883L22.0809 32.6975C21.6476 33.4233 21.5501 34.225 21.8209 34.9616C22.0809 35.6875 22.6984 36.2508 23.5001 36.5216C25.6018 37.2366 27.8118 37.5833 30.0218 37.5833C32.2318 37.5833 34.4418 37.2366 36.5434 36.5325C37.3018 36.2833 37.8868 35.7091 38.1684 34.9616C38.4501 34.2141 38.3743 33.3908 37.9518 32.6975Z" fill="#717591"/>
<path d="M33.0659 38.6775C32.6109 39.9341 31.4084 40.8333 30.0001 40.8333C29.1442 40.8333 28.2992 40.4866 27.7034 39.8691C27.3567 39.5441 27.0967 39.1108 26.9451 38.6666C27.0859 38.6883 27.2267 38.6991 27.3784 38.7208C27.6276 38.7533 27.8876 38.7858 28.1476 38.8075C28.7651 38.8616 29.3934 38.8941 30.0217 38.8941C30.6392 38.8941 31.2567 38.8616 31.8634 38.8075C32.0909 38.7858 32.3184 38.775 32.5351 38.7425C32.7084 38.7208 32.8817 38.6991 33.0659 38.6775Z" fill="#717591"/>
</svg>
