<svg width="4" height="20" viewBox="0 0 4 20" fill="none" xmlns="http://www.w3.org/2000/svg">
    <path d="M2.09091 3.18182C2.6934 3.18182 3.18182 2.6934 3.18182 2.09091C3.18182 1.48842 2.6934 1 2.09091 1C1.48842 1 1 1.48842 1 2.09091C1 2.6934 1.48842 3.18182 2.09091 3.18182Z" stroke="black" stroke-width="1.5" stroke-linecap="round" stroke-linejoin="round"/>
    <path d="M2.09091 11.1818C2.6934 11.1818 3.18182 10.6934 3.18182 10.0909C3.18182 9.48842 2.6934 9 2.09091 9C1.48842 9 1 9.48842 1 10.0909C1 10.6934 1.48842 11.1818 2.09091 11.1818Z" stroke="black" stroke-width="1.5" stroke-linecap="round" stroke-linejoin="round"/>
    <path d="M2.09091 19.1818C2.6934 19.1818 3.18182 18.6934 3.18182 18.0909C3.18182 17.4884 2.6934 17 2.09091 17C1.48842 17 1 17.4884 1 18.0909C1 18.6934 1.48842 19.1818 2.09091 19.1818Z" stroke="black" stroke-width="1.5" stroke-linecap="round" stroke-linejoin="round"/>
</svg>