<svg width="11" height="12" viewBox="0 0 11 12" fill="none" xmlns="http://www.w3.org/2000/svg">
<path d="M1.06167 4.869C1.11833 4.811 1.33228 4.563 1.53158 4.359C2.7 3.076 5.74807 0.976 7.34342 0.335C7.5857 0.232 8.19824 0.014 8.52552 0C8.83912 0 9.13806 0.072 9.42333 0.218C9.77894 0.422 10.0642 0.743 10.2205 1.122C10.3211 1.385 10.4775 2.172 10.4775 2.186C10.6338 3.047 10.7197 4.446 10.7197 5.992C10.7197 7.465 10.6338 8.807 10.5058 9.681C10.4911 9.695 10.3348 10.673 10.1639 11.008C9.85025 11.62 9.23771 12 8.58218 12H8.52552C8.09859 11.985 7.20078 11.605 7.20078 11.591C5.6914 10.949 2.71368 8.952 1.51692 7.625C1.51692 7.625 1.17988 7.284 1.03334 7.071C0.804732 6.765 0.691406 6.386 0.691406 6.007C0.691406 5.584 0.819386 5.19 1.06167 4.869Z" fill="#252730"/>
</svg>
