<svg width="24" height="24" viewBox="0 0 24 24" fill="none" xmlns="http://www.w3.org/2000/svg">
<path d="M20.0999 6.94C20.0999 7.48 19.8099 7.97 19.3499 8.22L17.6099 9.16L16.1299 9.95L13.0599 11.61C12.7299 11.79 12.3699 11.88 11.9999 11.88C11.6299 11.88 11.2699 11.79 10.9399 11.61L4.6499 8.22C4.1899 7.97 3.8999 7.48 3.8999 6.94C3.8999 6.4 4.1899 5.91 4.6499 5.66L6.6199 4.6L8.1899 3.75L10.9399 2.27C11.5999 1.91 12.3999 1.91 13.0599 2.27L19.3499 5.66C19.8099 5.91 20.0999 6.4 20.0999 6.94Z" fill="#A1A4B6"/>
<path d="M9.90021 12.79L4.05022 9.87002C3.60021 9.64002 3.08021 9.67002 2.65021 9.93002C2.22021 10.19 1.97021 10.65 1.97021 11.15V16.68C1.97021 17.64 2.50021 18.5 3.36021 18.93L9.21021 21.85C9.41021 21.95 9.63022 22 9.85021 22C10.1102 22 10.3702 21.93 10.6002 21.78C11.0302 21.52 11.2802 21.06 11.2802 20.56V15.03C11.2902 14.08 10.7602 13.22 9.90021 12.79Z" fill="#A1A4B6"/>
<path d="M22.03 11.15V16.68C22.03 17.63 21.5 18.49 20.64 18.92L14.79 21.85C14.59 21.95 14.37 22 14.15 22C13.89 22 13.63 21.93 13.39 21.78C12.97 21.52 12.71 21.06 12.71 20.56V15.04C12.71 14.08 13.24 13.22 14.1 12.79L16.25 11.72L17.75 10.97L19.95 9.87C20.4 9.64 20.92 9.66 21.35 9.93C21.77 10.19 22.03 10.65 22.03 11.15Z" fill="#A1A4B6"/>
<path d="M17.6101 9.16L16.1301 9.95L6.62012 4.6L8.19012 3.75L17.3701 8.93C17.4701 8.99 17.5501 9.07 17.6101 9.16Z" fill="#A1A4B6"/>
<path d="M17.75 10.97V13.24C17.75 13.65 17.41 13.99 17 13.99C16.59 13.99 16.25 13.65 16.25 13.24V11.72L17.75 10.97Z" fill="#A1A4B6"/>
</svg>
