<svg width="113" height="34" viewBox="0 0 113 34" fill="none" xmlns="http://www.w3.org/2000/svg">
<path d="M6.345 24.797C8.262 24.797 9.558 23.906 10.125 23.069L9.18 20.369C8.802 21.125 8.046 21.962 7.02 21.962C6.129 21.962 5.454 21.611 5.454 20.18V13.7H9.477V11.351H5.454V7.841L2.43 9.758V11.351H0.378V13.7H2.43V20.909C2.43 23.231 3.861 24.797 6.345 24.797ZM17.1281 24.77C20.0441 24.77 21.8261 23.447 22.8251 21.935L20.9621 19.991C20.4761 21.098 19.4501 22.286 17.1551 22.286C15.0761 22.286 13.6991 21.017 13.5371 18.668H22.9331C22.9871 18.398 23.0411 17.831 23.0411 17.345C23.0411 13.7 20.8541 11.081 16.9121 11.081C13.2131 11.081 10.6481 13.808 10.6481 17.939C10.6481 22.043 13.2131 24.77 17.1281 24.77ZM16.9121 13.511C18.9101 13.511 20.0981 14.645 20.3141 16.724H13.5641C13.8071 14.591 15.0491 13.511 16.9121 13.511ZM31.6533 24.77C34.9473 24.77 37.0263 22.907 37.7283 20.423L35.0013 19.073C34.7043 20.963 33.7593 22.232 31.7073 22.232C29.6283 22.232 28.3593 20.693 28.3593 17.939C28.3593 15.158 29.6283 13.619 31.7073 13.619C33.7323 13.619 34.7043 14.888 35.0013 16.778L37.7283 15.428C37.0263 12.944 34.9473 11.081 31.6533 11.081C27.7383 11.081 25.2813 13.835 25.2813 17.939C25.2813 22.016 27.7383 24.77 31.6533 24.77ZM43.0867 24.5V17.129C43.0867 14.969 43.8427 13.538 46.0567 13.538C48.0817 13.538 48.6217 14.645 48.6217 16.265V24.5H51.6727V15.347C51.6727 12.62 50.1067 11.081 47.5417 11.081C44.9227 11.081 43.5727 12.863 43.0867 14.942V6.41H40.0627V24.5H43.0867Z" fill="#0F27BD"/>
<path d="M58.617 24.5V17.129C58.617 14.969 59.373 13.538 61.155 13.538C62.937 13.538 63.693 14.456 63.693 16.265V24.5H66.717V17.129C66.717 14.969 67.473 13.538 69.255 13.538C71.037 13.538 71.793 14.456 71.793 16.265V24.5H74.817V15.347C74.817 12.62 73.494 11.081 70.983 11.081C68.472 11.081 67.176 12.89 66.717 14.969C66.582 12.485 65.286 11.081 62.883 11.081C60.399 11.081 59.103 12.863 58.617 14.942V11.351H55.593V24.5H58.617ZM80.7334 24.77C83.4874 24.77 84.7564 22.718 85.1614 20.99V21.962C85.1614 23.852 86.2684 24.5 87.6724 24.5H89.5354V21.908H88.6984C88.2124 21.908 87.9964 21.719 87.9964 21.125V16.184C87.9964 12.944 86.1604 11.081 82.8934 11.081C79.9774 11.081 77.9254 12.593 76.8994 13.997L78.7084 16.157C79.4644 14.78 80.8414 13.754 82.5964 13.754C84.4054 13.754 84.9994 14.645 85.1074 15.968L80.7064 17.831C78.5734 18.668 77.2774 19.802 77.2774 21.665C77.2774 23.555 78.5734 24.77 80.7334 24.77ZM80.1934 21.206C80.1934 20.531 80.6524 20.072 81.7864 19.559L85.1614 18.047V19.451C85.1614 21.233 83.8114 22.421 81.8134 22.421C80.7064 22.421 80.1934 21.962 80.1934 21.206ZM94.8719 24.5V17.264C94.8719 15.077 96.2759 13.349 97.7879 13.349C98.6789 13.349 99.0299 13.943 99.0299 14.672C99.0299 15.428 98.6249 16.292 98.1929 16.724H101.298C101.541 16.319 101.892 15.374 101.892 14.105C101.892 12.161 100.677 11.081 99.0299 11.081C96.6809 11.081 95.3579 12.971 94.8719 15.077V11.351H91.8479V24.5H94.8719ZM108.65 24.797C110.567 24.797 111.863 23.906 112.43 23.069L111.485 20.369C111.107 21.125 110.351 21.962 109.325 21.962C108.434 21.962 107.759 21.611 107.759 20.18V13.7H111.782V11.351H107.759V7.841L104.735 9.758V11.351H102.683V13.7H104.735V20.909C104.735 23.231 106.166 24.797 108.65 24.797Z" fill="#F17105"/>
</svg>
