<svg width="24" height="24" viewBox="0 0 24 24" fill="none" xmlns="http://www.w3.org/2000/svg">
<path d="M20.1004 6.94C20.1004 7.48 19.8104 7.97 19.3504 8.22L17.6104 9.16L16.1304 9.95L13.0604 11.61C12.7304 11.79 12.3704 11.88 12.0004 11.88C11.6304 11.88 11.2704 11.79 10.9404 11.61L4.65039 8.22C4.19039 7.97 3.90039 7.48 3.90039 6.94C3.90039 6.4 4.19039 5.91 4.65039 5.66L6.62039 4.6L8.19039 3.75L10.9404 2.27C11.6004 1.91 12.4004 1.91 13.0604 2.27L19.3504 5.66C19.8104 5.91 20.1004 6.4 20.1004 6.94Z" fill="#0F27BD"/>
<path d="M9.89973 12.79L4.04973 9.87002C3.59973 9.64002 3.07973 9.67002 2.64973 9.93002C2.21973 10.19 1.96973 10.65 1.96973 11.15V16.68C1.96973 17.64 2.49973 18.5 3.35973 18.93L9.20973 21.85C9.40973 21.95 9.62973 22 9.84973 22C10.1097 22 10.3697 21.93 10.5997 21.78C11.0297 21.52 11.2797 21.06 11.2797 20.56V15.03C11.2897 14.08 10.7597 13.22 9.89973 12.79Z" fill="#0F27BD"/>
<path d="M22.03 11.15V16.68C22.03 17.63 21.5 18.49 20.64 18.92L14.79 21.85C14.59 21.95 14.37 22 14.15 22C13.89 22 13.63 21.93 13.39 21.78C12.97 21.52 12.71 21.06 12.71 20.56V15.04C12.71 14.08 13.24 13.22 14.1 12.79L16.25 11.72L17.75 10.97L19.95 9.87C20.4 9.64 20.92 9.66 21.35 9.93C21.77 10.19 22.03 10.65 22.03 11.15Z" fill="#0F27BD"/>
<path d="M17.6101 9.16L16.1301 9.95L6.62012 4.6L8.19012 3.75L17.3701 8.93C17.4701 8.99 17.5501 9.07 17.6101 9.16Z" fill="#0F27BD"/>
<path d="M17.75 10.97V13.24C17.75 13.65 17.41 13.99 17 13.99C16.59 13.99 16.25 13.65 16.25 13.24V11.72L17.75 10.97Z" fill="#0F27BD"/>
</svg>