<svg width="48" height="49" viewBox="0 0 48 49" fill="none" xmlns="http://www.w3.org/2000/svg">
<circle cx="24" cy="24.0635" r="24" fill="#FAFAFB"/>
<path d="M32 19.6035C31.412 19.8648 30.7787 20.0408 30.1147 20.1208C30.7933 19.7141 31.312 19.0715 31.5587 18.3048C30.924 18.6808 30.2213 18.9541 29.4733 19.1008C28.876 18.4621 28.0213 18.0635 27.0787 18.0635C24.9587 18.0635 23.4013 20.0408 23.88 22.0941C21.1533 21.9568 18.7333 20.6501 17.1147 18.6648C16.2547 20.1395 16.6693 22.0701 18.1307 23.0475C17.5933 23.0301 17.088 22.8821 16.6453 22.6368C16.6093 24.1568 17.7 25.5795 19.2787 25.8968C18.8173 26.0221 18.3107 26.0515 17.796 25.9528C18.2133 27.2568 19.428 28.2048 20.8627 28.2315C19.48 29.3141 17.7427 29.7981 16 29.5928C17.4533 30.5248 19.1773 31.0675 21.0307 31.0675C27.1267 31.0675 30.5693 25.9195 30.3613 21.3021C31.004 20.8408 31.56 20.2621 32 19.6035Z" fill="#0F27BD"/>
</svg>
