<svg width="24" height="21" viewBox="0 0 24 21" fill="none" xmlns="http://www.w3.org/2000/svg">
<path d="M23.8842 19.7132L12.7419 0.428547C12.5759 0.141956 12.2893 0 12 0C11.7107 0 11.4215 0.141956 11.2581 0.428547L0.115851 19.7132C-0.213595 20.2864 0.198882 20.9988 0.857773 20.9988H23.1422C23.8011 20.9988 24.2136 20.2864 23.8842 19.7132ZM11.1429 7.92812C11.1429 7.81027 11.2393 7.71385 11.3572 7.71385H12.6428C12.7607 7.71385 12.8571 7.81027 12.8571 7.92812V12.8564C12.8571 12.9743 12.7607 13.0707 12.6428 13.0707H11.3572C11.2393 13.0707 11.1429 12.9743 11.1429 12.8564V7.92812ZM12 17.3562C11.6636 17.3493 11.3432 17.2108 11.1077 16.9705C10.8722 16.7301 10.7403 16.407 10.7403 16.0705C10.7403 15.734 10.8722 15.4109 11.1077 15.1706C11.3432 14.9302 11.6636 14.7917 12 14.7849C12.3364 14.7917 12.6568 14.9302 12.8923 15.1706C13.1278 15.4109 13.2597 15.734 13.2597 16.0705C13.2597 16.407 13.1278 16.7301 12.8923 16.9705C12.6568 17.2108 12.3364 17.3493 12 17.3562V17.3562Z" fill="#D41111"/>
</svg>
