<svg width="113" height="33" viewBox="0 0 113 33" fill="none" xmlns="http://www.w3.org/2000/svg">
<path d="M6.345 24.297C8.262 24.297 9.558 23.406 10.125 22.569L9.18 19.869C8.802 20.625 8.046 21.462 7.02 21.462C6.129 21.462 5.454 21.111 5.454 19.68V13.2H9.477V10.851H5.454V7.341L2.43 9.258V10.851H0.378V13.2H2.43V20.409C2.43 22.731 3.861 24.297 6.345 24.297ZM17.1281 24.27C20.0441 24.27 21.8261 22.947 22.8251 21.435L20.9621 19.491C20.4761 20.598 19.4501 21.786 17.1551 21.786C15.0761 21.786 13.6991 20.517 13.5371 18.168H22.9331C22.9871 17.898 23.0411 17.331 23.0411 16.845C23.0411 13.2 20.8541 10.581 16.9121 10.581C13.2131 10.581 10.6481 13.308 10.6481 17.439C10.6481 21.543 13.2131 24.27 17.1281 24.27ZM16.9121 13.011C18.9101 13.011 20.0981 14.145 20.3141 16.224H13.5641C13.8071 14.091 15.0491 13.011 16.9121 13.011ZM31.6533 24.27C34.9473 24.27 37.0263 22.407 37.7283 19.923L35.0013 18.573C34.7043 20.463 33.7593 21.732 31.7073 21.732C29.6283 21.732 28.3593 20.193 28.3593 17.439C28.3593 14.658 29.6283 13.119 31.7073 13.119C33.7323 13.119 34.7043 14.388 35.0013 16.278L37.7283 14.928C37.0263 12.444 34.9473 10.581 31.6533 10.581C27.7383 10.581 25.2813 13.335 25.2813 17.439C25.2813 21.516 27.7383 24.27 31.6533 24.27ZM43.0867 24V16.629C43.0867 14.469 43.8427 13.038 46.0567 13.038C48.0817 13.038 48.6217 14.145 48.6217 15.765V24H51.6727V14.847C51.6727 12.12 50.1067 10.581 47.5417 10.581C44.9227 10.581 43.5727 12.363 43.0867 14.442V5.91H40.0627V24H43.0867Z" fill="#0F27BD"/>
<path d="M58.617 24V16.629C58.617 14.469 59.373 13.038 61.155 13.038C62.937 13.038 63.693 13.956 63.693 15.765V24H66.717V16.629C66.717 14.469 67.473 13.038 69.255 13.038C71.037 13.038 71.793 13.956 71.793 15.765V24H74.817V14.847C74.817 12.12 73.494 10.581 70.983 10.581C68.472 10.581 67.176 12.39 66.717 14.469C66.582 11.985 65.286 10.581 62.883 10.581C60.399 10.581 59.103 12.363 58.617 14.442V10.851H55.593V24H58.617ZM80.7334 24.27C83.4874 24.27 84.7564 22.218 85.1614 20.49V21.462C85.1614 23.352 86.2684 24 87.6724 24H89.5354V21.408H88.6984C88.2124 21.408 87.9964 21.219 87.9964 20.625V15.684C87.9964 12.444 86.1604 10.581 82.8934 10.581C79.9774 10.581 77.9254 12.093 76.8994 13.497L78.7084 15.657C79.4644 14.28 80.8414 13.254 82.5964 13.254C84.4054 13.254 84.9994 14.145 85.1074 15.468L80.7064 17.331C78.5734 18.168 77.2774 19.302 77.2774 21.165C77.2774 23.055 78.5734 24.27 80.7334 24.27ZM80.1934 20.706C80.1934 20.031 80.6524 19.572 81.7864 19.059L85.1614 17.547V18.951C85.1614 20.733 83.8114 21.921 81.8134 21.921C80.7064 21.921 80.1934 21.462 80.1934 20.706ZM94.8719 24V16.764C94.8719 14.577 96.2759 12.849 97.7879 12.849C98.6789 12.849 99.0299 13.443 99.0299 14.172C99.0299 14.928 98.6249 15.792 98.1929 16.224H101.298C101.541 15.819 101.892 14.874 101.892 13.605C101.892 11.661 100.677 10.581 99.0299 10.581C96.6809 10.581 95.3579 12.471 94.8719 14.577V10.851H91.8479V24H94.8719ZM108.65 24.297C110.567 24.297 111.863 23.406 112.43 22.569L111.485 19.869C111.107 20.625 110.351 21.462 109.325 21.462C108.434 21.462 107.759 21.111 107.759 19.68V13.2H111.782V10.851H107.759V7.341L104.735 9.258V10.851H102.683V13.2H104.735V20.409C104.735 22.731 106.166 24.297 108.65 24.297Z" fill="#F17105"/>
</svg>
