<svg width="63" height="23" viewBox="0 0 63 23" fill="none" xmlns="http://www.w3.org/2000/svg">
<path d="M1.89988 12.8847C1.10143 12.6638 0.27513 13.132 0.0542834 13.9305C-0.166564 14.7289 0.301674 15.5552 1.10012 15.7761L1.89988 12.8847ZM62.1878 15.6634C62.924 15.2836 63.2129 14.3788 62.833 13.6426L56.6431 1.64532C56.2633 0.909105 55.3585 0.620213 54.6223 1.00006C53.8861 1.3799 53.5972 2.28465 53.977 3.02086L59.4792 13.6851L48.815 19.1873C48.0787 19.5671 47.7898 20.4719 48.1697 21.2081C48.5495 21.9443 49.4543 22.2332 50.1905 21.8533L62.1878 15.6634ZM1.10012 15.7761C13.2893 19.1475 20.7939 16.507 28.8703 14.4496C36.8017 12.4291 45.6296 10.8374 61.0437 15.7593L61.9563 12.9014C45.8704 7.76508 36.4483 9.42334 28.1297 11.5424C19.9561 13.6246 13.2107 16.0132 1.89988 12.8847L1.10012 15.7761Z" fill="#F17105"/>
</svg>
