<svg width="42" height="42" viewBox="0 0 42 42" fill="none" xmlns="http://www.w3.org/2000/svg">
<path d="M18.9166 25.1667H14.75C14.75 20.1939 16.7254 15.4248 20.2417 11.9085C23.758 8.39219 28.5272 6.41675 33.5 6.41675V10.5834C25.4375 10.5834 18.9166 17.1042 18.9166 25.1667ZM33.5 18.9167V14.7501C27.75 14.7501 23.0833 19.4167 23.0833 25.1667H27.25C27.25 21.7084 30.0416 18.9167 33.5 18.9167ZM10.5833 4.33342C10.5833 2.02091 8.72913 0.166748 6.41663 0.166748C4.10413 0.166748 2.24996 2.02091 2.24996 4.33342C2.24996 6.64592 4.10413 8.50008 6.41663 8.50008C8.72913 8.50008 10.5833 6.64592 10.5833 4.33342ZM19.8541 5.37508H15.6875C15.4457 6.83039 14.6953 8.15267 13.5698 9.10645C12.4443 10.0602 11.0169 10.5836 9.54163 10.5834H3.29163C1.56246 10.5834 0.166626 11.9792 0.166626 13.7084V18.9167H12.6666V14.2084C14.5969 13.5997 16.3064 12.4386 17.5838 10.8686C18.8613 9.29869 19.6506 7.3888 19.8541 5.37508ZM35.5833 31.4167C37.8958 31.4167 39.75 29.5626 39.75 27.2501C39.75 24.9376 37.8958 23.0834 35.5833 23.0834C33.2708 23.0834 31.4166 24.9376 31.4166 27.2501C31.4166 29.5626 33.2708 31.4167 35.5833 31.4167ZM38.7083 33.5001H32.4583C30.983 33.5003 29.5556 32.9769 28.4301 32.0231C27.3047 31.0693 26.5542 29.7471 26.3125 28.2917H22.1458C22.3494 30.3055 23.1387 32.2154 24.4161 33.7853C25.6935 35.3552 27.403 36.5163 29.3333 37.1251V41.8334H41.8333V36.6251C41.8333 34.8959 40.4375 33.5001 38.7083 33.5001Z" fill="#F17105"/>
</svg>
