<svg width="50" height="50" viewBox="0 0 50 50" fill="none" xmlns="http://www.w3.org/2000/svg">
<rect opacity="0.5" x="0.458333" y="0.458333" width="49.0833" height="49.0833" rx="12.375" stroke="#0F27BD" stroke-width="0.916667"/>
<path fill-rule="evenodd" clip-rule="evenodd" d="M16.9785 25.0007C16.9785 24.621 17.2863 24.3132 17.666 24.3132L32.3323 24.3131C32.712 24.3131 33.0198 24.621 33.0198 25.0007C33.0198 25.3803 32.712 25.6882 32.3323 25.6882H17.666C17.2863 25.6882 16.9785 25.3803 16.9785 25.0007ZM19.988 31.4173C19.988 31.0376 20.2958 30.7298 20.6755 30.7298L32.3327 30.7298C32.7124 30.7298 33.0202 31.0376 33.0202 31.4173C33.0202 31.797 32.7124 32.1048 32.3327 32.1048L20.6755 32.1048C20.2958 32.1048 19.988 31.797 19.988 31.4173ZM25.2027 18.584C25.2027 18.2043 25.5105 17.8965 25.8902 17.8965L32.3327 17.8965C32.7124 17.8965 33.0202 18.2043 33.0202 18.584C33.0202 18.9637 32.7124 19.2715 32.3327 19.2715L25.8902 19.2715C25.5105 19.2715 25.2027 18.9637 25.2027 18.584Z" fill="#0F27BD"/>
</svg>
