<svg width="133" height="109" viewBox="0 0 133 109" fill="none" xmlns="http://www.w3.org/2000/svg">
<g clip-path="url(#clip0_219_3660)">
<path d="M46.3386 26.3281L89.0548 16.4931L97.6167 53.7536L54.9013 63.5886L46.3386 26.3281Z" fill="#F1F1F4" stroke="#C7C8D3" stroke-width="2" stroke-miterlimit="10"/>
<path d="M51.4533 29.009L85.626 21.141L86.4689 24.8062L52.2962 32.6742L51.4533 29.009Z" fill="#C7C8D3"/>
<path d="M44.1162 21.7268C43.9007 21.2248 43.7861 20.6853 43.7789 20.139C43.7717 19.5926 43.8721 19.0503 44.0744 18.5428C44.2766 18.0353 44.5767 17.5727 44.9576 17.1813C45.3385 16.7899 45.7926 16.4775 46.2941 16.2618L78.9265 2.22244C79.428 2.00673 79.967 1.89201 80.5128 1.88482C81.0585 1.87763 81.6004 1.97813 82.1074 2.18056C82.6144 2.38299 83.0765 2.6834 83.4675 3.06464C83.8585 3.44587 84.1707 3.90046 84.3861 4.40244L86.4534 9.21758L46.1835 26.5428L44.1162 21.7268Z" fill="#FAFAFB" stroke="#C7C8D3" stroke-width="2" stroke-miterlimit="10"/>
<path d="M46.0117 16.3833L45.3525 16.667C44.8115 16.8996 44.3469 17.28 44.0121 17.7648C43.6773 18.2496 43.4859 18.8191 43.4597 19.4078L50.3898 24.733L54.5486 22.9441L46.0117 16.3833Z" fill="#C7C8D3"/>
<path d="M62.5294 19.511L58.3707 21.2999L49.8337 14.7391L53.9925 12.9502L62.5294 19.511Z" fill="#C7C8D3"/>
<path d="M70.5105 16.078L66.3518 17.8669L57.8148 11.3061L61.9744 9.51715L70.5113 16.078H70.5105Z" fill="#C7C8D3"/>
<path d="M78.4917 12.644L74.3329 14.4329L65.796 7.87212L69.9555 6.08319L78.4925 12.644H78.4917Z" fill="#C7C8D3"/>
<path d="M86.441 9.18765L86.4543 9.21844L82.3121 10.9999L73.7752 4.43908L77.9348 2.65015L86.441 9.18765Z" fill="#C7C8D3"/>
<path d="M104.544 101.446L65.814 80.1033L92.0457 32.4079C92.2482 32.0377 92.5216 31.7111 92.8503 31.4468C93.179 31.1824 93.5565 30.9855 93.9612 30.8672C94.366 30.749 94.7901 30.7118 95.2092 30.7577C95.6284 30.8036 96.0343 30.9318 96.404 31.1349L124.252 46.4814L127.866 59.0422L104.544 101.446Z" fill="#F1F1F4" stroke="#C7C8D3" stroke-width="2" stroke-miterlimit="10"/>
<path d="M82.7991 78.9476L76.9404 75.7192C76.7218 75.5986 76.7634 75.1093 77.0219 74.6384C77.2812 74.1674 77.6719 73.872 77.8905 73.9919L83.7492 77.2202C83.9678 77.3409 83.9262 77.8301 83.6677 78.3011C83.3651 78.8503 83.0177 79.0674 82.7991 78.9476Z" fill="#D5D6DE"/>
<path d="M109.904 50.9013L95.3187 42.8636C94.9795 42.6764 94.9072 42.1181 95.1632 41.653C95.4193 41.1879 95.9288 40.9499 96.268 41.1371L110.854 49.1748C111.193 49.3612 111.265 49.9203 111.009 50.3855C110.753 50.8498 110.243 51.0886 109.904 50.9013Z" fill="#C7C8D3"/>
<path d="M98.0252 49.6058L93.0319 46.8542C92.7302 46.6878 92.6911 46.147 92.9463 45.6818C93.2023 45.2175 93.6795 44.9613 93.9812 45.1268L98.9321 47.856C99.2339 48.0224 99.2729 48.5633 99.0169 49.0275C98.7617 49.4918 98.2837 49.7481 98.0252 49.6058Z" fill="#C7C8D3"/>
<path d="M107.638 79.8862L90.1523 70.2501L88.2255 69.1884L82.3976 65.9766C82.1624 65.8468 81.7293 66.0765 81.4525 66.5807C81.2147 67.0126 81.1657 67.5476 81.4475 67.7032L87.2762 70.9149L89.2031 71.9766L106.688 81.6119C106.923 81.7417 107.356 81.5121 107.633 81.0078C107.863 80.4786 107.873 80.0152 107.638 79.8854V79.8862Z" fill="#C7C8D3"/>
<path d="M110.17 75.2807L103.672 71.6995L101.458 70.4797L84.9306 61.372C84.6953 61.2422 84.2622 61.4718 83.9854 61.976C83.7477 62.4079 83.6987 62.9429 83.9813 63.0993L100.509 72.2071L102.722 73.426L109.22 77.0072C109.456 77.137 109.889 76.9074 110.166 76.4032C110.396 75.874 110.405 75.4105 110.17 75.2799V75.2807Z" fill="#C7C8D3"/>
<path d="M112.429 71.2743L110.74 70.3441L109.052 69.4138L87.1459 57.3423C86.9115 57.2125 86.4784 57.443 86.2016 57.9472C85.9647 58.379 85.9148 58.9141 86.1958 59.0688L108.102 71.1404L109.978 72.1746L111.433 72.9759C111.667 73.1049 112.099 72.8744 112.376 72.371C112.66 71.9649 112.664 71.4041 112.429 71.2752V71.2743Z" fill="#C7C8D3"/>
<path d="M114.925 66.6497L109.484 63.6526L108.136 62.9096L89.6748 52.736C89.442 52.6079 89.0114 52.8392 88.7346 53.3434C88.4969 53.7752 88.4462 54.3086 88.7247 54.4625L107.186 64.6361L108.535 65.3792L113.929 68.3521C114.254 68.531 114.638 68.2739 114.915 67.7697C115.153 67.3387 115.204 66.8045 114.925 66.6505V66.6497Z" fill="#C7C8D3"/>
<path d="M124.065 46.8201L122.01 50.5577C121.694 51.132 121.494 51.763 121.422 52.4146C121.349 53.0662 121.406 53.7257 121.588 54.3554C121.771 54.9851 122.075 55.5727 122.484 56.0846C122.893 56.5965 123.399 57.0228 123.973 57.339L127.68 59.3809" fill="#F1F1F4"/>
<path d="M124.065 46.8201L122.01 50.5577C121.694 51.1321 121.494 51.763 121.422 52.4146C121.349 53.0662 121.406 53.7257 121.588 54.3554C121.771 54.9851 122.075 55.5727 122.484 56.0847C122.893 56.5966 123.399 57.0228 123.973 57.339L127.68 59.3809" stroke="#C7C8D3" stroke-width="2" stroke-miterlimit="10"/>
<path d="M61.5025 84.1738L20.0564 99.5811L1.12052 48.5425C0.972826 48.1472 0.90442 47.7267 0.919211 47.305C0.934002 46.8832 1.0317 46.4685 1.20672 46.0846C1.38173 45.7007 1.63064 45.3551 1.93919 45.0675C2.24775 44.78 2.60991 44.5561 3.00496 44.4088L32.8053 33.3299L44.6672 38.7974L61.5033 84.1738H61.5025Z" fill="#F1F1F4" stroke="#C7C8D3" stroke-width="2" stroke-miterlimit="10"/>
<path d="M32.9382 33.6918L34.4212 37.6924C34.8817 38.9335 35.8158 39.9408 37.0182 40.4925C38.2205 41.0443 39.5926 41.0954 40.8326 40.6345L44.7985 39.1601" fill="#F1F1F4"/>
<path d="M32.9382 33.6918L34.4212 37.6924C34.8817 38.9335 35.8158 39.9408 37.0182 40.4925C38.2205 41.0443 39.5926 41.0954 40.8326 40.6345L44.7985 39.1601" stroke="#C7C8D3" stroke-width="2" stroke-miterlimit="10"/>
<path d="M46.1832 67.1016L37.0885 62.2398C35.3653 61.3196 33.2215 62.1358 32.4942 63.9905L29.2872 72.1697L27.5375 71.2411C25.8035 70.3217 23.653 71.1562 22.9406 73.0259L21.5699 76.6179C20.5441 79.3063 23.1044 81.9339 25.7561 80.9138L37.3554 76.4506L45.7759 73.1723C48.4226 72.143 48.6712 68.4312 46.1832 67.1016Z" fill="#C7C8D3"/>
<path d="M22.4961 65.7644C24.6391 64.6362 25.5302 62.1566 24.5202 60.1297C23.5102 58.102 21.0331 57.3964 18.8902 58.5239C16.7472 59.653 15.8569 62.1325 16.8669 64.1602C17.876 66.1871 20.3532 66.8935 22.4961 65.7644Z" fill="#C7C8D3"/>
<path d="M94.5016 100.948C94.5016 102.714 93.801 104.407 92.5539 105.655C91.3067 106.903 89.6153 107.605 87.8516 107.605H51.0771C49.3134 107.605 47.6219 106.903 46.3748 105.655C45.1277 104.407 44.4271 102.714 44.4271 100.948V45.9398C44.4259 45.4618 44.5188 44.9882 44.7006 44.5462C44.8824 44.1042 45.1495 43.7025 45.4866 43.3639C45.8237 43.0253 46.2242 42.7566 46.6651 42.5731C47.106 42.3896 47.5788 42.2949 48.0563 42.2945H84.0611L94.5016 52.781V100.948Z" fill="#FAFAFB" stroke="#C7C8D3" stroke-width="2" stroke-miterlimit="10"/>
<path d="M84.0601 42.7313V48.2254C84.0601 49.5495 84.5856 50.8193 85.5209 51.7556C86.4563 52.6918 87.7249 53.2178 89.0476 53.2178H94.5006" fill="#F1F1F4"/>
<path d="M84.0601 42.7313V48.2254C84.0601 49.5495 84.5856 50.8193 85.5209 51.7556C86.4563 52.6918 87.7249 53.2178 89.0476 53.2178H94.5006" stroke="#C7C8D3" stroke-width="2" stroke-miterlimit="10"/>
<path d="M62.5148 62.9413C64.6303 61.565 67.0634 60.8237 69.8132 60.8237C77.1124 60.8237 83.0359 66.7529 83.0359 74.0584C83.0359 81.3639 77.1124 87.294 69.814 87.294C62.5156 87.294 56.5913 81.3648 56.5913 74.0584C56.5913 69.3997 58.9188 65.3767 62.5148 62.9413Z" fill="#C7C8D3" stroke="#A1A4B6" stroke-width="2" stroke-miterlimit="10"/>
<path d="M64.2647 70.7851L64.8466 71.3792L64.2647 70.7851C63.8574 71.1853 63.6945 71.7345 63.6945 72.2195C63.6945 72.7046 63.8565 73.2538 64.2655 73.6549C65.1242 74.4969 66.391 74.4969 67.2497 73.6549L67.657 73.2546V79.6798C67.657 80.9346 68.7343 81.7733 69.7742 81.7733C71.0128 81.7733 71.8914 80.7415 71.8914 79.6798V73.2546L72.2987 73.654C73.1582 74.4969 74.4251 74.4969 75.2829 73.654C75.6936 73.253 75.9346 72.7296 75.9346 72.1671C75.9346 71.6055 75.6936 71.0821 75.2837 70.6802L71.3203 66.792C71.0028 66.4808 70.5672 66.4059 70.3511 66.3776C70.0959 66.3444 69.8357 66.3444 69.6811 66.3444H69.667C69.1857 66.3444 68.6346 66.4991 68.2289 66.8977L64.2655 70.7851H64.2647Z" fill="#FAFAFB"/>
<path d="M64.2647 70.7851L64.8466 71.3792L64.2647 70.7851ZM64.2647 70.7851C63.8574 71.1853 63.6945 71.7345 63.6945 72.2195C63.6945 72.7046 63.8565 73.2538 64.2655 73.6549C65.1242 74.4969 66.391 74.4969 67.2497 73.6549L67.657 73.2546V79.6798C67.657 80.9346 68.7343 81.7733 69.7742 81.7733C71.0128 81.7733 71.8914 80.7415 71.8914 79.6798V73.2546L72.2987 73.654C73.1582 74.4969 74.4251 74.4969 75.2829 73.654C75.6936 73.253 75.9346 72.7296 75.9346 72.1671C75.9346 71.6055 75.6936 71.0821 75.2837 70.6802L71.3203 66.792C71.0028 66.4808 70.5672 66.4059 70.3511 66.3776C70.0959 66.3444 69.8357 66.3444 69.6811 66.3444H69.667C69.1857 66.3444 68.6346 66.4991 68.2289 66.8977L64.2655 70.7851H64.2647Z" stroke="#A1A4B6" stroke-width="2"/>
</g>
<defs>
<clipPath id="clip0_219_3660">
<rect width="133" height="109" fill="white"/>
</clipPath>
</defs>
</svg>
