<svg width="60" height="60" viewBox="0 0 60 60" fill="none" xmlns="http://www.w3.org/2000/svg">
<rect width="60" height="60" rx="30" fill="#E7E9F8"/>
<path d="M37.9516 32.6975L36.8683 30.8991C36.6408 30.4983 36.435 29.74 36.435 29.2958V26.555C36.435 24.0091 34.94 21.81 32.7841 20.7808C32.2208 19.7841 31.1808 19.1666 29.9891 19.1666C28.8083 19.1666 27.7466 19.8058 27.1833 20.8133C25.0708 21.8641 23.6083 24.0416 23.6083 26.555V29.2958C23.6083 29.74 23.4025 30.4983 23.175 30.8883L22.0808 32.6975C21.6475 33.4233 21.55 34.225 21.8208 34.9616C22.0808 35.6875 22.6983 36.2508 23.5 36.5216C25.6016 37.2366 27.8116 37.5833 30.0216 37.5833C32.2316 37.5833 34.4416 37.2366 36.5433 36.5325C37.3016 36.2833 37.8866 35.7091 38.1683 34.9616C38.45 34.2141 38.3741 33.3908 37.9516 32.6975Z" fill="#717591"/>
<path d="M33.0658 38.6775C32.6108 39.9341 31.4083 40.8333 30 40.8333C29.1442 40.8333 28.2992 40.4866 27.7033 39.8691C27.3567 39.5441 27.0967 39.1108 26.945 38.6666C27.0858 38.6883 27.2267 38.6991 27.3783 38.7208C27.6275 38.7533 27.8875 38.7858 28.1475 38.8075C28.765 38.8616 29.3933 38.8941 30.0217 38.8941C30.6392 38.8941 31.2567 38.8616 31.8633 38.8075C32.0908 38.7858 32.3183 38.775 32.535 38.7425C32.7083 38.7208 32.8817 38.6991 33.0658 38.6775Z" fill="#717591"/>
<circle cx="36" cy="21" r="4" fill="#D41111"/>
</svg>
