<svg width="18" height="16" viewBox="0 0 18 16" fill="none" xmlns="http://www.w3.org/2000/svg">
<path fill-rule="evenodd" clip-rule="evenodd" d="M0.979492 8C0.979492 7.6203 1.2873 7.3125 1.66699 7.3125L16.3333 7.3125C16.713 7.3125 17.0208 7.6203 17.0208 8C17.0208 8.37969 16.713 8.6875 16.3333 8.6875H1.66699C1.2873 8.6875 0.979492 8.37969 0.979492 8ZM3.98897 14.4167C3.98897 14.037 4.29678 13.7292 4.67647 13.7292L16.3337 13.7292C16.7134 13.7292 17.0212 14.037 17.0212 14.4167C17.0212 14.7964 16.7134 15.1042 16.3337 15.1042L4.67647 15.1042C4.29678 15.1042 3.98897 14.7964 3.98897 14.4167ZM9.2037 1.58333C9.2037 1.20364 9.51151 0.895832 9.8912 0.895832L16.3337 0.895832C16.7134 0.895832 17.0212 1.20364 17.0212 1.58333C17.0212 1.96303 16.7134 2.27083 16.3337 2.27083L9.8912 2.27083C9.51151 2.27083 9.2037 1.96303 9.2037 1.58333Z" fill="#0F27BD"/>
</svg>
